<svg xmlns="http://www.w3.org/2000/svg" xmlns:xlink="http://www.w3.org/1999/xlink" viewBox="0 0 850.39 850.39">
  <g class="hide" id="legs_3">
    <image class="shadows" id="legs_3_img" width="152" height="160" transform="translate(350.13 491.73)" xlink:href="robot/robot_parts1.png"/>
  </g>
  <g class="hide" id="legs_2" style="fill: none; isolation: isolate">
    <image class="shadows" id="legs_2_img" width="173" height="142" transform="translate(338.08 493.15)" xlink:href="robot/robot_parts2.png"/>
  </g>
  <g class="hide" id="legs_1" style="fill: none; isolation: isolate">
    <image class="shadows" id="legs_1_img" width="118" height="140" transform="translate(366.67 493.57)" xlink:href="robot/robot_parts3.png"/>
  </g>
  <g class="hide" id="arm_right_3">
    <image class="shadows" id="arm_3_r_img" width="116" height="182" transform="translate(524.58 321.7)" xlink:href="robot/robot_parts4.png"/>
  </g>
  <g class="hide" id="arm_left_3">
    <image class="shadows" id="arm_3_l_img" width="113" height="195" transform="translate(216.58 323.25)" xlink:href="robot/robot_parts5.png"/>
  </g>
  <g class="hide" id="arm_right_2" style="fill: none; isolation: isolate">
    <image class="shadows" id="arm_2_r_img" width="83" height="241" transform="translate(525.28 319.63)" xlink:href="robot/robot_parts6.png"/>
  </g>
  <g class="hide" id="arm_left_2" style="fill: none; isolation: isolate">
    <image class="shadows" id="arm_2_l_img" width="76" height="242" transform="translate(253.94 317.13)" xlink:href="robot/robot_parts7.png"/>
  </g>
  <g class="hide" id="arm_right_1" style="fill: none; isolation: isolate">
    <g class="colorize" id="arm_1_r" style="fill: white; isolation: isolate">
      <path d="M548.28,373.36l20,2v2h2v3h-2v2h2v3c-.29.75-2.71.21-2,3,.67.33,1.34.66,2,1v2h-2v3h2v2l-2,1c-.73,2.57,1.78,2.15,2,4l-2,1-1,3h3v1c-4.64,1.46-2.5,1.15-2,5,0,0,2,0,1,1h-2v3h2v2h-2v3h2c-1.11,4.09-1.27,1.15-3,3,.34,1,.67,2,1,3h1c-.66,1-1.33,2-2,3,.67.33,1.34.66,2,1,.67,2.82-1.75,2.28-2,3a2.55,2.55,0,0,0,1,3,2.7,2.7,0,0,1-1,3c.34,1,.67,2,1,3h-1v2h-1c.67,1,1.34,2,2,3l-2,1c-.65,2.85,1.61,2.12,2,3v2h-2v2c.33.77,2.19.39,2,2h-1c-.33,1-.66,2-1,3,.09.56,2.33.51,2,2l-2,1v3h2c-.33.66-.66,1.33-1,2h-1c-.54,1.63,1,1.86,1,2q-.49,3-1,6h2v2h-2v3h2v2h-2c.71,4,.41,3.66,0,8h2c-.82,1.87-1.48,2.61-2,5h2c-.82,1.87-1.48,2.61-2,5h2c-.82,1.87-1.48,2.61-2,5h2v2h-2v3h2v2h-2c.45,2.22,1.87,3.47,2,5h-1a10,10,0,0,0-1,4h2c-1.12,4.09-2.08,1.7-3,3-1.16,1.64,1.61.79,2,1v1h-1c.34,1,.67,2,1,3l-3,1v1h-2v1h-16a7.31,7.31,0,0,0-2-3c.46-1.36,1.4-1.68,1-4,0,0-1.28-.21-1-2a2.7,2.7,0,0,0,1-3s-1.29-.12-1-2a2.72,2.72,0,0,0,1-3s-1.29-.12-1-2h1c.46-2.31-1-3-1-3,.34-1,.67-2,1-3v-1h-1a2.81,2.81,0,0,1,1-3c.53-2.41-.93-2.58-1-4,.34-.67.67-1.34,1-2h-1c.34-.67.67-1.34,1-2l-2-1c.14-1.7,2-1.83,2-2a1.57,1.57,0,0,0-1-2q.51-3,1-6c-2-.58-.86.12-2-1l3-1c1-2.34-1.9-2.69-2-3,.34-1.67.67-3.34,1-5,0-.15-1.38-.38-1-2l2-1c-.66-1.34-1.33-2.67-2-4h2c.07-.72-1.64-3.36-2-5h2c-.82-1.88-1.48-2.62-2-5h2v-3h-2v-3h2v-2h-2v-3h2c-.33-1.34-.66-2.67-1-4h-1v-1h2a9.34,9.34,0,0,0-1-4h-1c.16-1.66,2-1.87,2-2-.33-1.67-.66-3.34-1-5h2c-.33-1.34-.66-2.67-1-4h-1v-1h2c-.33-1.67-.66-3.34-1-5l2-1c-.19-1.73-2-1.88-2-2-.61-2.9,1.6-2.1,2-3v-2h-2v-2h2v-3h-2v-2c2.77-.73,2.24-.28,3-3h-2v-3h2c-2.45-5.88-1.31-1.51,0-7h-2c.34-1.34.67-2.67,1-4h1c-.66-1-1.33-2-2-3,1.72-1.13,1.36-.64,2-3h-2c.47-2.4,1.16-3.15,2-5h-2v-3h2Z" />
    </g>
    <image class="shadows" id="arm_1_r_img" width="59" height="276" transform="translate(520.28 314.36)" xlink:href="robot/robot_parts8.png"/>
  </g>
  <g class="hide" id="arm_left_1" style="fill: none; isolation: isolate">
    <g class="colorize" id="arm_1_l" style="fill: white;isolation: isolate">
      <path d="M309.79,378.39h2v3h-1c-.8,1.82-1.26.78,0,2s0,.4,2,1v2l-3,1c.84,1.13-.13.14,1,1,1.14,1.14,0,.4,2,1-.65,2.74-1.31,2.27-2,5h3v1c-2,1.13-2.34,1.41-3,4h3c-.72,2.76-.28,2.24-3,3v2l3,1-3,4c2.76.72,2.24.28,3,3h-2v3h2c-.65,2.74-1.31,2.27-2,5h2v3h-2v3h2v2h-2v3h2v2h-2c1.16,4.08.91,1.06,3,3v1h-1c-1.14,1.14,0,.4-2,1,1.16,4.08.91,1.06,3,3v1h-1c-1.14,1.14,0,.4-2,1v3h3v1c-5.26,2.66-1.46,1,0,6h-2c.33,1.33.67,2.66,1,4h1c.23,1.75-2,1.74-2,2-.08.57,1.68,3.44,2,5h-2v3h3v1h-1c-1.14,1.14,0,.4-2,1v4h1v-1c.86-1.89,1,2,1,2h-2v3h2v2h-2c-.33,1-.67,2-1,3h3v1a6.12,6.12,0,0,0-3,3h1c1.14,1.14,0,.4,2,1-2.05,2.52-2.41.41-3,5h3v1h-2v3s1.68.81,2,2h-1l-2,3h3v2c-.35.8-2.72.21-2,3l2,1v2h-2v3h3v1h-2v3h2v2h-2c.38,3.54,1.24,3,2,6l-7,1v1l-16,2v-3h2v-2c-2.76-.73-2.24-.28-3-3h3v-2c-2.76-.73-2.24-.28-3-3h2c-.77-3.22-1.51-2.16-2-6h2v-1c-1.91-1.26-1.66-1-2-4h2v-1a6.75,6.75,0,0,1-3-3c2.88-2.11,2-.93,1-4h-1v-1h1c1.14-1.14,0-.4,2-1v-2h-2v-3h2v-2l-3-1v-1h1c1.14-1.14,0-.4,2-1-.72-2.76-.28-2.24-3-3v-2h3c-.72-2.76-.28-2.24-3-3v-2h3v-3h-2c.68-3.81.66-3.2,0-7h2v-3c-2-.58-.87.12-2-1,1.91-1.26,1.66-1,2-4h-2v-2h2v-3h-3v-1c1.36-1.17,1.53-1.83,2-4h-2v-2h2v-3h-2c.64-2.74,1.31-2.28,2-5h-2c.64-2.74,1.31-2.28,2-5l-3-1v-1h1c1.14-1.14,0-.4,2-1-.65-2.74-1.31-2.28-2-5h2v-3h-3v-2h3c-.72-2.76-.28-2.24-3-3v-2h3v-1c-1.14-1.14-.4,0-1-2h-2v-2h3v-1c-1.14-1.14-.4,0-1-2h-2v-2h3v-1c-1.14-1.14-.4,0-1-2h-2v-2h2v-3h-2v-3h2v-1c-1.91-1.26-1.66-1-2-4,1.14-1.14.4,0,1-2h-2c.64-2.74,1.31-2.28,2-5h-3v-1h1v-3h1v-1h-3v-1h1c1.78-1.59,16.62-3,21-3a6.8,6.8,0,0,0,3,3C310.84,376.19,310.4,376,309.79,378.39Z" />
    </g>
    <image class="shadows" id="arm_1_l_img" width="53" height="273" transform="translate(278.81 314.36)" xlink:href="robot/robot_parts9.png"/>
  </g>
  <g class="hide" id="head_3">
    <image class="shadows" id="head_3_img" width="75" height="109" transform="translate(390.82 201.9)" xlink:href="robot/robot_parts10.png"/>
  </g>
  <g class="hide" id="head_2" style="fill: none; isolation: isolate">
    <image class="shadows" id="head_2_img" width="117" height="109" transform="translate(369.29 201.93)" xlink:href="robot/robot_parts11.png"/>
  </g>
  <g class="hide" id="head_1" style="fill: none; isolation: isolate">
    <image class="shadows" id="head_1_img" width="97" height="94" transform="translate(379.58 215.93)" xlink:href="robot/robot_parts12.png"/>
  </g>
  <g class="hide" id="body_3">
    <g class="shadows colorize" id="torso_3" style="fill: white; isolation: isolate">
      <path d="M518.65,312.46l0,2.44,9.93.06-.32,50c0,8.73.43,20-1.27,26.8l-.05,7.31H528l-.2,30.46c-1.92,7.4-1.22,19.81-1.28,29.23l-1.32,34.11-8.82-.06V494l-56.23-.35c-11.45-.08-26.85-1.9-36.39,1l-19.84-.13c-17.17-.11-37.62-1.69-52.93.88-1.84.31-1.92-1.16-2.2-1.23L326.76,494l.06-8.53h-1.11c.38-.81.75-1.62,1.12-2.43h-1.1l.24-39h-1.1l.26-40.21c.19-30.14.29-64-.55-88.95l3.32-1.2v1.22H329l1.11-2.43,71.67.45,101.43.64v-1.22Z" />
      <path d="M329,484.28c22.11,5.35,55.58,2.79,81.57,3l50.71.32c8.53.06,19.74,1,26.47-1.05l11,.07c8.21.05,17.69.2,24.26-1.06,2.48-14.56,1.32-34.56,1.43-51.17L526,371c.06-9.81-.67-22.66,1.29-30.45l.06-8.53h-1.11l0-2.43-4.39-3.69v-1.22L480,324.4l-146.64-.93c-1.26,1.38,0,.49-2.21,1.21a26.28,26.28,0,0,1-4.45,6.06q.29,41.43.58,82.86c-.09,13.38-1.94,31.43.83,42.65L328,466A124,124,0,0,0,329,484.28Z" />
    </g>
    <g class="colorize" id="chest_3" style="fill: white; isolation: isolate">
      <path d="M513,333.14l0,4.87,3.29,2.46v1.22c1.61,1.11,3.52-.52,4.4,1.24l-.14,21.93c-2.41,3-1.24,23.06-1.28,29.24l-1.59,76.75c-4.41,1.81-6.7,2.83-7.77,8.48l-167.59.16v-2.44c-3.25-3.12-2.52-5.75-8.78-6.14q-.13-64.57-.28-129.16l6.63-3.61c.85-1.18,1-5.31,2.25-6.08Z" />
      <path d="M378.45,339.6l-.06,9.75h1.11c.37-1.21.75-2.43,1.12-3.65h1.1l1.08,3.66,3.32-1.19v1.21c2.32-.23,1.06-.12,2.21-1.2,2.22-.68,1,.15,2.22-1.2h-1.11l0-3.66,2.2,0,0,4.87a10.91,10.91,0,0,0,4.4,1.25c.38-1.22.75-2.44,1.13-3.65l-3.31,0,0-2.44,4.41,0a15.69,15.69,0,0,0,1.06,6.1l1.11-1.21,2.2,1.23v1.22l-24.26-.16V353l98.12.62,0-2.44-48.51-.3v-1.22c2.19-1.58,3.77-5.37,4.46-8.5l-5.51,0v1.22l-2.2-1.23v1.22c-2.26,1.62-2.08,2-2.24,6.08l3.32-1.2,0,2.44c1.25,1,.16-.16,1.1,1.22l-22-.14v-1.22c1.66-1.22,2.59-1.35,2.24-4.86H406c.37-1.22.75-2.44,1.12-3.65l-9.93,1.15v-1.21l-3.31,0-2.21,1.21V340.9c-3.51-1.08-2-.42-5.52,0l0,6.09H385v-1.22h-1.1v-1.22H385l0-4.87Z" />
      <path d="M453.42,341.29l-.05,7.31a12.8,12.8,0,0,0,5.51,1.25c1.68-1.46,4.95-.45,7.71,0-.35-1.62-.71-3.25-1.07-4.88l2.21,0,0,4.87h2.2c.06-6.29.46-4.83,2.26-8.51l-5.51,0v1.22l-2.21,1.21v-2.44L460,342.55l-1.08-2.44Z" />
      <path d="M408.21,341l2.16,8.54c1.26-1.38.43,0,1.11-2.43h1.11l1.14-6.08Z" />
      <path d="M414.83,341.05l-.05,8.53H417v-1.22c.35,0,2.52,1.11,4.4,1.25l0-2.44H420.3c0-.38,1-2.78,1.14-4.86A15.63,15.63,0,0,0,414.83,341.05Z" />
      <path d="M434.67,341.17a20.84,20.84,0,0,0-1.14,7.31c1.24,1,.16-.16,1.09,1.22l3.32-1.2c.47.35.29,2.21,2.19,1.24v-1.22c1.9-1.36,1.5-.76,2.23-3.64a9.52,9.52,0,0,1-2.18-3.67c-2.7.68-2.44,1.26-4.43,2.41C435.14,341.16,435.9,342.56,434.67,341.17Z" />
      <path d="M443.49,342.45l-.05,7.31c1.26-1,.16.15,1.11-1.21l3.3,1.23v-1.21H449l0-6.09h-2.21l0,3.65h-1.1l0-3.66Z" />
      <path d="M458.91,343.76c-.81,3.36-.32,2.73-3.33,3.64l0-4.88h1.11C458,343.92,456.72,343,458.91,343.76Z" />
      <path d="M473.25,342.63v2.44h2.2l0-2.43Z" />
      <path d="M426.94,343.56c1.25,1.4.44,0,1.09,2.44h-1.1Z" />
      <path d="M401.56,347.06l0-2.44c1.24,1,.16-.16,1.09,1.22h1.1C402.51,347.23,403.77,346.34,401.56,347.06Z" />
      <path d="M472.13,346.28,471,349.93l3.31,0c1.27-1.38,0-.48,2.21-1.2l0-2.44Z" />
      <path d="M452.14,369.31l46.3.29.07-11-45.2-.28C452.36,361.06,452.13,365,452.14,369.31Z" />
      <path d="M356.28,359l0,8.53,4.41-1.19v1.22l3.31-1.2v1.22a2.75,2.75,0,0,0,3.32-1.2c1.9-.34,1.85,1.14,2.2,1.24l6.61,0,5.51,0c.38-.81.75-1.62,1.12-2.43h1.11l0,2.44c2.93,0,9.08-1.32,9.93-1.16v1.22l3.31,0,.05-7.31a12.88,12.88,0,0,0-5.51-1.25v1.21c-.73.41-1.47.81-2.21,1.21l0-2.44-5.52,0v1.22h-1.11v-1.22l-7.72-.05,0,4.88h-1.1v-1.22c-2.76-2.51-.44-2.94-5.49-3.69l-1.12,2.43c-2.83,1.06-2.71-2.23-3.29-2.46a2.71,2.71,0,0,0-3.32,1.2Z" />
      <path d="M392.65,361.62h2.2v1.22h-1.11v1.21C392.49,362.67,393.3,364.06,392.65,361.62Z" />
      <path d="M361.71,372.39h2.2l0,4.88,3.3,1.24,0-6.09c3.52,1,3.19,1.45,3.27,6.11L387,379.86c.38-1.21.75-2.43,1.13-3.65-3.53-1-3.19-1.45-3.27-6.11a247.93,247.93,0,0,1-26.46-1.39c-.37,1.22-.75,2.44-1.12,3.65h-1.1c-.46,1.33,1.87,1.54,0,4.87h1.1v1.21l3.31,0v-1.22h1.1Z" />
      <ellipse cx="475.25" cy="375.54" rx="6.89" ry="32.74" transform="translate(96.71 848.42) rotate(-89.64)" fill="none"/>
      <path d="M377.12,376.14l-3.31,0V374.9h1.1v-1.22h-1.1c-2.08-1.06,2.21-1.21,2.21-1.21v1.22C377.28,375.1,376.47,373.71,377.12,376.14Z" />
      <path d="M380.45,372.51h1.1l0,3.65h-1.1Z" />
      <path d="M362.76,380.93l-6.62-.05v1.22c4.08,4.26-.51,2.79,1.07,6.1h1.1v1.22c2.22-.69,1,.15,2.22-1.21h1.1C362,385.8,362.37,383.36,362.76,380.93Z" />
      <path d="M371.53,388.29c-.39-4.31-1.34-3.71-2.16-7.32l-3.31,0v1.22H365l0,7.31H366v-1.22Z" />
      <ellipse cx="475.19" cy="385.9" rx="6.03" ry="32.74" transform="translate(86.29 858.64) rotate(-89.64)" fill="none"/>
      <path d="M452,391.24l-.06,9.74,46.3.3.06-9.75Z" />
      <path d="M356,400.38l4.41,0c.65-1.42,1.94-1.91,2.22-2.43l0-3.65h1.11l0,4.87h1.11c1.24,1.39,0,.48,2.19,1.23l0-6.09,3.31,0,0,6.09,11-1.15v1.22l9.92.06a21,21,0,0,0,1.15-7.3c-1.25-1-.16.15-1.1-1.23-2.79,1.62-.8,1.91-2.22,3.64H388c-.94-.93.5-5-3.28-3.68l-1.13,3.65h-1.1c-.88-.76.49-5-3.28-3.67v1.21c-1.59,1.51-1.74,3.37-3.34,4.86-1.25-1.4,0-.49-2.2-1.24l0-2.43h2.2l0-2.43-17.64-.12c-.38,1.22-.75,2.44-1.13,3.65h-1.1Z" />
      <path d="M396.87,392.11c-.39,2.43-.77,4.87-1.15,7.3,1.24,1,.16-.15,1.09,1.23,2.71-.75,2.34-1.48,4.43-2.41V397c.48-.88,2.07,3.61,2.18,3.67h1.1v-1.21l9.91,1.28,1.12-2.43a4.71,4.71,0,0,1-2.19-2.45h1.1c1.27-1.38,0-.48,2.22-1.2l0,6.09,4.41,0,.05-8.53-5.52,1.18v-1.21l-4.41,0a2.93,2.93,0,0,1-3.32,1.2,2.2,2.2,0,0,0-2.19-1.24l-3.32,1.2v-1.22Z" />
      <path d="M423.27,400.8l6.62.05c-.67-3.76-1.74-4.23-2.15-8.55l-3.31,0v1.22h-1.1Z" />
      <ellipse cx="475.05" cy="407.22" rx="6.89" ry="32.74" transform="translate(64.84 879.69) rotate(-89.64)" fill="none"/>
      <path d="M356,402.82c-.12,3.46-.25,5.22-1.14,7.3H356v1.21c2.56,1.26,1.32-2.48,5.51,0v-1.22h1.1l0-3.66h1.1l1.08,3.66c1.74,1.14,4.11-1.58,4.42-1.19l0,2.44,6.62-1.18,1.1,1.23c.53-.28.42-2.05,2.22-2.43.36.82.72,1.63,1.09,2.45,4.89,2.16,7.36-.37,11-1.15v-1.22c-3-3.44-.32-5.26-6.58-6.13l-1.12,2.43c-1.79-.23-2-2.37-2.19-2.45l-6.62,1.17v-1.22c-4.18-1.14-13-.4-15.45,1.12Z" />
      <path d="M404.46,411.65l0-2.44a15.05,15.05,0,0,1,2.19,2.45l6.61,0v-1.22l6.61,1.26a20.84,20.84,0,0,0,1.14-7.31c-1.24-1-.16.16-1.09-1.22l-3.31,0,0,4.87-3.31,1.2,1.14-6.09-4.41,0c-.38.81-.75,1.62-1.12,2.43h-1.1v-2.44c-6,.25-3.56.92-6.64,3.62l0-3.66-4.41,0v1.22h-1.1l-1.14,6.09h1.1v1.21c1.74.81,2.14-1.19,2.21-1.2Z" />
      <path d="M427.67,403.27l-3.31,0a4.66,4.66,0,0,1-2.22,2.42l1.09,1.23-1.12,3.64h1.1v1.22l3.31,0v-1.22l3.31,0v-1.22a7.13,7.13,0,0,1-3.28-3.67h1.1Z" />
      <path d="M371.42,405.35h2.21l0,2.44h-2.2Z" />
      <ellipse cx="386.3" cy="407.27" rx="2.58" ry="0.78" transform="translate(-23.41 790.99) rotate(-89.64)" fill="none"/>
      <path d="M451.86,413.17l-.06,9.75h1.1v1.22h-1.1l-.06,9.75,45.2.29,1.17-9.74c-4,.11-11.11.86-13.23-1.31l13.23.09.07-9.75Z" />
      <path d="M355.93,413.78l0,7.31a10.91,10.91,0,0,0,4.4,1.25c1.27-1.38,0-.49,2.21-1.21v-1.22h-1.1l0-6.09-2.21,0V415Z" />
      <path d="M379.06,418.8l-3.31,0v-1.22h1.1l0-3.66c-3.23.82-3.62,1.34-4.44,4.85l-3.31,0a12.68,12.68,0,0,0-1.07-4.88c-2.22.68-.95-.15-2.21,1.2h-1.1l0,6.1c1.24,1,.16-.16,1.09,1.22l2.21,0v-1.22l9.91,1.28Z" />
      <path d="M381.25,421.25l4.41,0v-1.22h1.11v1.22H389l0-2.44c-3-2.22-1.79-4.17-6.59-4.91a4.62,4.62,0,0,1-2.22,2.42Z" />
      <ellipse cx="476.6" cy="423.68" rx="0.86" ry="3.9" transform="translate(49.92 897.6) rotate(-89.64)" fill="none"/>
      <path d="M371.3,424.84v2.44h-1.11c-.91-1.07.37-5-3.28-3.67v1.22h-1.1c-.38,2.43-.77,4.87-1.15,7.3h1.1v1.22l3.31,0v-1.22h1.1l2.2,1.23c1.14-4.14,1.39-2.28,3.34-4.85h1.1l0-3.65c-1.24-1-.16.15-1.09-1.23Z" />
      <path d="M391.15,423.75l1.05,8.54,3.32-1.2,0-3.66,2.21,0,0,4.87a12.88,12.88,0,0,0,5.51,1.25v-1.21l3.3,1.24v-1.22l3.31,0,.05-7.31a10.75,10.75,0,0,0-4.4-1.25c-.38.81-.75,1.62-1.12,2.43l-3.3-1.24v-1.22c-1.56-.06.44,1.12-1.11,1.21Z" />
      <path d="M355.87,424.75c-.1,4.35.09,7,1,9.75,2.63-1.65.9-2.2,2.22-3.64l3.3,2.46V432.1h1.11l0-6.1Z" />
      <path d="M377.92,424.89l-.05,7.31a10.76,10.76,0,0,0,4.4,1.24v-1.22l6.61,1.26,1.12-3.64-3.31,0V428.6c3.05-.87,2.47-.33,3.33-3.64l-5.51,0v1.22h-1.1v-1.22Z" />
      <path d="M382.31,427.35c.67.83,1.74,1.29,1.08,3.66h-1.1v-1.22l-1.09-1.23h1.1Z" />
      <path d="M399.94,428.68h2.21v1.22C399.93,429.2,401.19,430.05,399.94,428.68Z" />
      <path d="M451.72,435.1l-.06,9.75,45.2.28.07-9.75Z" />
      <path d="M355.8,435.71l0,6.09c1.24,1,.16-.15,1.09,1.23l4.41,0v-1.22h1.1v1.21a2.15,2.15,0,0,0,2.21-1.2c1.55-.18-.25.34,1.09,1.22h1.11v-1.22l4.41,1.25,1.14-7.3-4.41,0V437c-.44,0-2.45-1.11-4.41-1.25v2.44l-2.21,0,0-2.43Z" />
      <path d="M374.54,435.83l-.05,7.31,3.3,1.24v-1.22h1.1l.05-7.31Z" />
      <path d="M439.43,461.83c4.09.75,2.51.72,6.61,0l0-2.44a26.72,26.72,0,0,1,2.19,2.45l4.41,0v-1.22l2.2,1.23c1-.63.45-2.08,2.22-2.42,1,.95.38,2.08,2.19,2.45l1.12-2.43c1.63-.6,1.3,1.37,1.09,2.45h1.1v-2.43l4.42-1.19,1.08,3.66,9.93-1.16c.36.82.73,1.63,1.09,2.45,2.09.77.68-1.43,1.12-2.43l2.19,1.23,0-2.44,3.3,1.24v1.22l1.11-1.21,3.3,1.24c.28-5.93,1.2-4.12,2.26-8.52h-2.21V452.4l-3.31,1.2v1.22c-1.56.05.46-1.15-1.1-1.23-2.64-.13-2.79.53-4.41,1.19l0,3.66-2.2,0c-.85-1.44.67-1.09,1.11-1.21l-1.08-3.66-4.41,0,0,2.44a22.73,22.73,0,0,1-2.19-2.45l-6.62,1.17v-1.21l-3.31,0v-1.21h-1.1v1.22c-1,1.32-.53-.39-1.11,1.21h1.1c.43,2.38-.38,1.54-1.12,2.43v-1.22a9.64,9.64,0,0,1-2.18-3.67l-4.42,1.19v1.22h-1.1v-1.22c-2.57-.86-4.18.65-5.52,1.19l0,3.65-5.52,1.18a12.75,12.75,0,0,1,1.13-4.86l3.3,1.24,0-3.66c-1.24-1-.16.15-1.09-1.22-2.22.68-1-.16-2.22,1.2-3.05.86-2.46.32-3.33,3.63h-1.1C438.72,457.76,439.07,459.79,439.43,461.83Z" />
      <path d="M342.4,462.43l2.2,0,0-4.88,3.31,0,0,3.66H349v1.21l4.41,0c2.9-3.82,1-.89,6.62,0v-1.21h1.11l0-4.87h1.1v1.21a9.52,9.52,0,0,1,2.18,3.67c1.26-1,.16.16,1.11-1.21h1.11l0-3.66h1.1c.34,4.87,1.11,5.64,5.48,6.13v-1.22l7.72,0c0-4.07-.54-5.52-1.05-8.54l-5.51,0s.07,1.55-2.21,1.2v-1.22l-3.31,0v1.22l-5.5-1.25c-.8.26-.49,2.69-2.22,2.42-.37-.81-.73-1.63-1.09-2.44-3.4-.75-2.1,3-5.53,2.4V454l-4.41,0-1.09-2.44-5.51,0C342.62,454.19,342.39,458.09,342.4,462.43Z" />
      <path d="M397.53,461.56l0-2.43c1.24,1,.16-.16,1.09,1.22,1.25,1.4.44,0,1.09,2.44,4.22-.69,10.78-2,16.54-1.11,1.55.24-.45,1,1.1,1.23v-1.22l3.3,0v-1.22l-3.3-1.24a15.88,15.88,0,0,0-1.06-6.1l-1.11,1.21c-1.54.28.41-.78-1.1-1.22l-14.33-.09,0,2.43h-2.2L396.48,453,391,454.21V453l-4.41,0v-1.21c-1.51-.47-.05.35-1.11,1.21h-1.11l0,3.66c1.42,1.27,1.08,2.43,2.18,3.66s2.16.89,3.29,2.46l2.21,0c1-.48.66-3.47,3.32-2.42v1.22Z" />
      <path d="M421.84,453.19l0,8.53,7.71,0v-1.21h1.1v1.22l3.3,0,.06-8.53L429.56,452l-1.11,2.43h-1.11v-1.22Z" />
      <path d="M493.46,461l7.71,1.27V461l3.31,0V459.8l3.29,2.46V461h1.1l.05-7.31-3.32,1.19a1.74,1.74,0,0,0-2.2-1.23s-.21,1.56-2.21,1.21a2.34,2.34,0,0,0-2.2-1.24c-2.75.06-3.65,3-4.42,2.41v-2.43h-1.1Z" />
      <path d="M456,454.62c1.25,1.4.44,0,1.09,2.44H456Z" />
      <path d="M372.21,455.31h2.21l0,4.88h-1.11V459h-1.1Z" />
      <path d="M414.08,459.23c-3.3-1.23-1.2.1-1.08-3.66h1.11Z" />
      <path d="M427.31,459.31c-3.3-1.23-1.2.1-1.08-3.66h1.11Z" />
      <path d="M449.39,455.8h2.2l0,3.66h-1.1v-1.22C449.23,456.85,450,458.23,449.39,455.8Z" />
      <path d="M469.23,455.92l2.21,0,0,3.65h-2.2Z" />
      <path d="M475.85,456l2.2,0v1.22C475.83,456.48,477.09,457.34,475.85,456Z" />
      <path d="M486.87,456c1.25,1.4.44,0,1.09,2.45h-1.1Z" />
      <path d="M497.9,456.1l2.2,0,0,3.65h-2.21Z" />
      <path d="M355.66,457.64c1.24,1.4.44,0,1.08,2.45h-1.1Z" />
      <path d="M427.27,466.62c.49,2.92,1.25,3.84,2.16,6.11h1.11l1.11-2.43c1.73-.31,1.43,2.18,2.19,2.45,2.55.88,2.93-1.09,4.42-1.19v1.22h1.11v-1.22c1.89-.31,1.86,1.14,2.2,1.24l5.51,0v-1.22h1.1l1.14-6.09h-1.1v1.22l-3.3-1.24s-.26,1.56-2.21,1.2V465.5l-4.41,0s-.1,1.59-2.21,1.2v-1.22l-5.51,0v1.21Z" />
      <path d="M406.32,466.49l0,6.09h1.1v-1.22c1.79-.8,2.06,1.2,2.2,1.23l5.51,0v-1.22l5.5,1.25v-1.21l2.21-1.21,0-3.65Z" />
    </g>
    <image id="body_3_img" width="219" height="194" transform="matrix(1.1, 0.01, -0.01, 1.22, 307.3, 258.73)" xlink:href="robot/robot_parts13.png"/>
  </g>
  <g class="hide" id="body_2" style="fill: none; isolation: isolate">
    <g class="shadows colorize" id="torso_2" style="fill: white; isolation: isolate">
      <path d="M416.32,306.4h2c-.84,1.13.13.14-1,1v1h-3v-1C416.33,306.82,415.18,307.52,416.32,306.4Z" />
      <path d="M390.32,358.4h-12a74.86,74.86,0,0,0-1-14l-3-1v-1l-5,1c-1,5.38-1,13.14-1,20h-2c-.55,3.08-1.25,3.91,0,7h1c.33,3.33.67,6.66,1,10h-3c.11,4.53.27,4.39,2,7h1c.33,3.33.67,6.66,1,10h-3c-.33,2-.67,4-1,6l3,1c.33,1.66.67,3.33,1,5h-1v4l-2,1v3h-1c.33,1,.67,2,1,3h2v11h-1v2h-1c.67,2.66,1.33,5.33,2,8l3,1c-.22,6.29-.75,12.56,3,15v1c1.88,1.2,4.27.25,6,0q.49-8,1-16h9v43h1v8c-19.87.05-41.72-.1-60-1-1-11.09-1-25.37-1-38v-17c-2.93-10.45-1-32.21-1-45q-.49-41.5-1-83h12v-1l4,1h1v-1c5.67-1.45,13.73.62,18,1,17,1.47,35.44-.87,51-1v1h-1c-1,1.28-3.07,1.82-4,3-.33,1-.67,2-1,3h-7v1h-7s-.13.67-2,1c-2.37,4.07-3.07,3.75-3,11,1.5,1.68,1,5.82,1,9Z" />
      <path d="M526.32,311.4a62.25,62.25,0,0,1-1,27v35h-1v47h-1v31h-1v30h-1v13c-4.09,1.5-11.36,1-17,1h-33v-1h-7q-.49-65-1-130v-33c0-5.1.51-10.44-2-13-2.92-3.14-7.5-1.59-13-2h-3c-.33-1-.67-2-1-3-.93-1.18-3-1.72-4-3l33-1c6.65,1.86,17.68,1,26,1Z" />
      <path d="M475.32,335.4c-.73,2.66-1.61,3.12-3,5h-1c-.33,1.66-.67,3.33-1,5h-1q.49,6.5,1,13h1c.33,1,.67,2,1,3l5,4,1,2,6,1v1h8v-1h3v-1h2v-1h2v-1a8.31,8.31,0,0,1,4-2c.75-3.57,3-6,4-9v-10c-3.68-3.35-3-8.43-9-10C492.52,327.48,481.13,333.82,475.32,335.4Z" />
      <path d="M471.32,484.4l24,1q.49-21,1-42c0-7.53-1.14-18.19,1-24h-2c-2.27-2-18.22-1.09-23-1-1.95,5.32-1,15-1,22Z" />
    </g>
    <g class="colorize" id="chest_2" style="fill: white; isolation: isolate">
      <path d="M445.32,316.4h14a21.94,21.94,0,0,0,4,5v170h-1v10h-15v5h-41v-4c-3.57-1.34-9.91-1-15-1q-.49-70-1-140c0-10.17.43-22.45-1-31-1.06-6.33.84-10.71,4-13v-1h8v-1h7c.93-2,2.31-4.79,4-6h2v-1c1.23-1,1.93-.74,3-2,6-.18,14.6-1,19,1v1h2l2,3C443.05,313.35,444.34,312.53,445.32,316.4Z" />
    </g>
    <image id="body_2_img" width="200" height="223" transform="translate(328.32 284.4)" xlink:href="robot/robot_parts14.png"/>
  </g>
  <g class="hide" id="body_1" style="fill: white; isolation: isolate">
    <g class="shadows colorize" id="torso_1" style="fill: white; isolation: isolate">
      <path d="M367.18,311.33c11.13,0,21.75.41,30.14-2h10v1c2.69.7,4.6-.77,6-1l33.15,1c9-2.53,20.8.19,30.13,0l13.06-1,1,2h2v1h15.06c2.45,4.67,2.09,10.71,2,18.08-1.91,2.21-1,9.14-1,13.06v51.23h-1v3h-1v23.11h-1v18.08h-1V468h-1v3h-1l2,25.11a13.28,13.28,0,0,0-4,3H356.13v-1h-8l-1-2h-2v-4h2q-2.5-61.78-5-123.56c-2-7.25-1-19.17-1-28.13,0-10.36-2.28-19.48,1-28.12l9-2,1,2h6v-1h2l1-2c3.07-1.27,4.52,2.16,6,0Z" />
      <path d="M385.26,335.44v-2h-2v2c-4.31-.09-9.19-.08-12.05,1v2a41.07,41.07,0,0,1,6,4l2,3h3v1h2v1h2l1,2h7v2l-6,2v1h-3v1h-2l-1,2-4,1-1,2h-2l-2,3-7,6v2l-2,1v2l-2,2v2h-1v2h-1v2h-1v4h-1c-1,2.95-2.2,15-1,19.09h1v5h1v3h1c.33,1.34.67,2.68,1,4h1v2l4,3v2l5,4v2l5,4,5,6,3,2v2l2,1v2l2,1v2h1v2h1c3.36,7.56,2.29,18.93,4,28.13l3,1,1,2h2v1h53.24v-2l3-2c-.33-2-.67-4-1-6h1V460h1v-2h1v-3h1c.33-1.34.67-2.68,1-4l4-3v-2l10-9,4-5,2-1v-2l3-2,1-4,2-1v-2l2-2v-2h1v-2l2-1c.34-1.34.67-2.68,1-4h1c1.32-3.63,0-19.62-1-22.1h-1v-2h-1v-3h-1v-2h-1v-2l-2-1c-.34-1.34-.67-2.68-1-4l-3-2v-2l-3-2c-5.67-5.77-11.64-12.19-21.1-14.06.85-1.14-.13-.15,1-1,2.07-2.3,6-1.9,9-3,.66-1.2,1.62-1.43,2-2v-2l2-1v-4l3-2c-.34-1-.67-2-1-3h-7v-2h-2v2h-6v-1h-2v-1h-8v-1h-2v-1l-6-2v-1l-14.07,1v-1l-12.05,1v1c-.9.12-4-3.27-8-2v1l-5,1-1,2-4,1v1h-7v1Z" />
    </g>
    <g class="colorize" id="shoulders_1" style="fill: white; isolation: isolate">
      <path d="M343.07,391.69H331l-2-3h-1v-2h-1v-3h-1v-2h-1v-4h-1v-4h-1v-5h-1v-5h-1q-.5-6.52-1-13.06h-1v-3h-1V334.44c0-13.47,2.05-23.59,4-34.16,1.1-.59,1.59-1.76,2-2h2v-1l20.09-1c2.45,4.38,5.36,8.6,6,15.06-4.43-1.77-3.81-.54-7,1-2.23,1.07-1.11-1-3,1-1.68,1.78-3.29,13.58-2,18.08,1.49,5.26,1,14.22,1,21.1v16.07h1v8A90.26,90.26,0,0,0,343.07,391.69Z" />
      <path d="M524.89,394.71H508.82q.49-40.18,1-80.36c-3.11-1.65-1.8-1.91-7-2,.35-4.71,2.14-7.9,3-12.06,3.5-.72,18.56-1.3,21.1,1,2.83,2.32,3.9,7.16,5,11v9c3.18,11.55.77,37.48-2,47.21v9h-1v5h-1v5h-1Z" />
    </g>
    <g class="colorize" id="chest_1" style="fill: white; isolation: isolate">
      <path d="M425.44,387.68h-2c-1.13-9.05-15-26.12,4-26.12,1.85,3.38,3.74,4.73,4,10h-1c-.34,2-.67,4-1,6h-1v3l-2,1C426.11,383.66,425.78,385.67,425.44,387.68Z" />
      <path d="M398.32,363.57h3v1h1v3h-1c-.33,2-.67,4-1,6l-2,1c-.33,1.34-.67,2.68-1,4h-1c-.33,1.33-.67,2.67-1,4h-1q-5.52,16.58-11.05,33.15c-2-.57-.87.12-2-1-2.56-2.22-1.77-4.52-3-8h-1V387.68h1c.34-1.34.67-2.68,1-4h1v-3h1v-2l2-1v-2l2-1,5-6h1l1-2h2l1-2h3Z" />
      <path d="M465.62,413.79c-.69-4-2.75-6.88-4-10l-2-9h-1v-2h-1v-3h-1l-2-6h-1v-2h-1v-2h-1v-3h-1c-.34-1.34-.67-2.68-1-4h-1v-2h-1v-2h-1c-.92-1.39-.67-1.76-1-4a12.77,12.77,0,0,1,5-1v1l5,1,2,3,9,8v2h1c.34,1.33.67,2.67,1,4h1v4h1v2h1v6h1c1.35,4.81-1.22,16.28-3,18.08v1Z" />
      <path d="M407.36,382.65c2.78.73,2.25.28,3,3h1c.33,2,.67,4,1,6h1v3h1v2h1c.45,1.34-.4.14-1,1-2.06,1.89-9.26,1.11-13.06,1-.84-1.14.13-.15-1-1C402.52,392.63,405.09,388.12,407.36,382.65Z" />
      <path d="M441.52,382.65c1.17,5.73,4.58,8.08,5,15.07-4.89.89-6.5.18-12.06,0l2-10,2-1v-3h1C440.65,382.51,439.51,383.26,441.52,382.65Z" />
      <path d="M407.36,434.89a21.17,21.17,0,0,1-10,0l-2-3h-1v-2h-1c-1.43-3.95,3.28-15.67,4-19.09,4.06-1.52,11.43-1,17.07-1v-1h1v1c1.14,1.14.4,0,1,2h-1c-.34,1.68-.67,3.35-1,5h-1v3h-1v2h-1v5h-1l-1,5h-1Z" />
      <path d="M433.48,409.78h18.08c.58,2.82,2.27,4.79,3,7v6h1v3h1c-.33,2-.67,4-1,6-5.72,3.5-4.35,5.23-12.06,2-.54-1.06-1.84-1.71-2-2v-3l-2-1v-2h-1l-2-9C435.27,414,434,414.3,433.48,409.78Z" />
      <path d="M424.44,425.85c2.83,1.86,6.81,12.14,7,17.07-2.14,1.73-.57,2.05-4,3v1c-1.69,1-5.89-.76-7-1-1-2.22-1.67-2.83-2-6Z" />
    </g>
    <image id="body_1_img" width="215" height="203" transform="translate(317.72 295.73)" xlink:href="robot/robot_parts15.png"/>
  </g>
</svg>
