<svg xmlns="http://www.w3.org/2000/svg" xmlns:xlink="http://www.w3.org/1999/xlink" viewBox="0 0 850.39 850.39">
  <g class="hide" data-name="legs_3" id="legs_3">
    <image id="legs_3_img" width="152" height="160" transform="translate(345.75 472.93)" xlink:href="robots/robot_31.png"/>
  </g>
  <g class="hide" data-name="legs_2" id="legs_2" style="fill: none; isolation: isolate">
    <image id="legs_2_img" width="173" height="142" transform="translate(333.7 473.35)" xlink:href="robots/robot_32.png"/>
  </g>
  <g class="hide" data-name="legs_1" id="legs_1" style="fill: none; isolation: isolate">
    <image id="legs_1_img" width="118" height="140" transform="translate(362.29 473.76)" xlink:href="robots/robot_33.png"/>
  </g>
  <g class="hide" data-name="arm_3_right" id="arm_3_right">
    <image id="arm_3_r_img" width="116" height="182" transform="translate(515.2 328.9)" xlink:href="robots/robot_34.png"/>
  </g>
  <g class="hide" data-name="arm_3_left" id="arm_3_left">
    <image id="arm_3_l_img" width="113" height="195" transform="translate(219.2 329.44)" xlink:href="robots/robot_35.png"/>
  </g>
  <g class="hide" data-name="arm_2_right" id="arm_2_right" style="fill: none; isolation: isolate">
    <image id="arm_2_r_img" width="83" height="241" transform="translate(513.9 327.83)" xlink:href="robots/robot_36.png"/>
  </g>
  <g class="hide" data-name="arm_2_left" id="arm_2_left" style="fill: none; isolation: isolate">
    <image id="arm_2_l_img" width="76" height="242" transform="translate(256.56 326.33)" xlink:href="robots/robot_37.png"/>
  </g>
  <g class="hide colorize" data-name="arm_1_right" id="arm_1_right" style="fill: none; isolation: isolate">
    <g id="arm_1_r" style="fill: none; isolation: isolate">
      <path d="M537.9,388.55l20,2v2h2v3h-2v2h2v3c-.29.75-2.71.21-2,3l2,1v2h-2v3h2v2l-2,1c-.73,2.57,1.78,2.16,2,4l-2,1-1,3h3v1c-4.64,1.46-2.5,1.16-2,5,0,0,2,0,1,1h-2v3h2v2h-2v3h2c-1.12,4.09-1.27,1.16-3,3,.34,1,.67,2,1,3h1c-.66,1-1.33,2-2,3l2,1c.67,2.83-1.75,2.29-2,3a2.53,2.53,0,0,0,1,3,2.7,2.7,0,0,1-1,3c.34,1,.67,2,1,3h-1v2h-1c.67,1,1.34,2,2,3l-2,1c-.65,2.86,1.61,2.13,2,3v2h-2v2c.33.77,2.19.39,2,2h-1c-.33,1-.66,2-1,3,.09.56,2.33.52,2,2l-2,1v3h2c-.33.67-.66,1.33-1,2h-1c-.54,1.63,1,1.86,1,2q-.49,3-1,6h2v2h-2v3h2v2h-2c.7,4,.41,3.66,0,8h2c-.82,1.88-1.48,2.62-2,5h2c-.82,1.88-1.48,2.62-2,5h2c-.82,1.88-1.48,2.62-2,5h2v2h-2v3h2v2h-2c.45,2.22,1.87,3.47,2,5h-1a10.1,10.1,0,0,0-1,4h2c-1.12,4.09-2.08,1.7-3,3-1.16,1.65,1.61.8,2,1v1h-1c.34,1,.67,2,1,3l-3,1v1h-2v1h-16a7.44,7.44,0,0,0-2-3c.46-1.36,1.4-1.68,1-4,0,0-1.29-.21-1-2a2.7,2.7,0,0,0,1-3s-1.29-.12-1-2a2.71,2.71,0,0,0,1-3s-1.29-.12-1-2h1c.46-2.31-1-3-1-3,.34-1,.67-2,1-3v-1h-1a2.82,2.82,0,0,1,1-3c.53-2.41-.93-2.58-1-4,.34-.67.67-1.33,1-2h-1c.34-.67.67-1.33,1-2l-2-1c.14-1.69,2-1.83,2-2,.44-1.63-1-1.85-1-2q.51-3,1-6c-2-.57-.86.12-2-1l3-1c1-2.34-1.9-2.68-2-3,.34-1.67.67-3.33,1-5,0-.15-1.38-.37-1-2l2-1c-.66-1.33-1.33-2.67-2-4h2c.07-.72-1.64-3.36-2-5h2c-.82-1.88-1.48-2.62-2-5h2v-3h-2v-3h2v-2h-2v-3h2c-.33-1.33-.66-2.67-1-4h-1v-1h2a9.38,9.38,0,0,0-1-4h-1c.16-1.66,2-1.86,2-2-.33-1.67-.66-3.33-1-5h2c-.33-1.33-.66-2.67-1-4h-1v-1h2c-.33-1.67-.66-3.33-1-5l2-1c-.19-1.73-2-1.88-2-2-.61-2.9,1.6-2.1,2-3v-2h-2v-2h2v-3h-2v-2c2.76-.72,2.24-.28,3-3h-2v-3h2c-2.45-5.87-1.31-1.5,0-7h-2c.34-1.33.67-2.67,1-4h1c-.66-1-1.33-2-2-3,1.72-1.13,1.36-.63,2-3h-2c.47-2.39,1.16-3.14,2-5h-2v-3h2Z" />
    </g>
    <image id="arm_1_r_img" width="59" height="276" transform="translate(509.9 329.55)" xlink:href="robots/robot_38.png"/>
  </g>
  <g class="hide colorize" data-name="arm_1_left" id="arm_1_left" style="fill: none; isolation: isolate">
    <g id="arm_1_l" style="fill: none; mix-blend-mode: multiply;isolation: isolate">
      <path d="M310.41,393.58h2v3h-1c-.8,1.82-1.26.78,0,2s0,.4,2,1v2l-3,1c.84,1.14-.13.15,1,1,1.14,1.14,0,.4,2,1-.65,2.74-1.31,2.28-2,5h3v1c-2,1.13-2.34,1.42-3,4h3c-.73,2.77-.28,2.24-3,3v2l3,1-3,4c2.76.73,2.23.28,3,3h-2v3h2c-.65,2.74-1.31,2.28-2,5h2v3h-2v3h2v2h-2v3h2v2h-2c1.16,4.08.91,1.07,3,3v1h-1c-1.14,1.14,0,.4-2,1,1.16,4.08.91,1.07,3,3v1h-1c-1.14,1.14,0,.4-2,1v3h3v1c-5.26,2.67-1.46,1,0,6h-2c.33,1.34.66,2.67,1,4h1c.23,1.75-2,1.74-2,2-.08.57,1.68,3.45,2,5h-2v3h3v1h-1c-1.14,1.14,0,.4-2,1v4h1v-1c.86-1.89,1,2,1,2h-2v3h2v2h-2c-.34,1-.67,2-1,3h3v1a6.2,6.2,0,0,0-3,3h1c1.14,1.14,0,.4,2,1-2.05,2.52-2.42.41-3,5h3v1h-2v3s1.68.82,2,2h-1c-.67,1-1.34,2-2,3h3v2c-.35.8-2.72.21-2,3l2,1v2h-2v3h3v1h-2v3h2v2h-2c.38,3.54,1.24,3,2,6l-7,1v1l-16,2v-3h2v-2c-2.76-.72-2.24-.28-3-3h3v-2c-2.76-.72-2.24-.28-3-3h2c-.77-3.21-1.51-2.15-2-6h2v-1c-1.91-1.25-1.66-1-2-4h2v-1a6.6,6.6,0,0,1-3-3c2.88-2.11,2-.92,1-4h-1v-1h1c1.14-1.14,0-.4,2-1v-2h-2v-3h2v-2l-3-1v-1h1c1.14-1.14,0-.4,2-1-.73-2.76-.28-2.23-3-3v-2h3c-.73-2.76-.28-2.23-3-3v-2h3v-3h-2c.68-3.8.66-3.19,0-7h2v-3c-2-.57-.87.12-2-1,1.91-1.25,1.66-1,2-4h-2v-2h2v-3h-3v-1c1.36-1.16,1.53-1.82,2-4h-2v-2h2v-3h-2c.64-2.74,1.31-2.27,2-5h-2c.64-2.74,1.31-2.27,2-5l-3-1v-1h1c1.14-1.14,0-.4,2-1-.65-2.74-1.31-2.27-2-5h2v-3h-3v-2h3c-.73-2.76-.28-2.23-3-3v-2h3v-1c-1.14-1.14-.4,0-1-2h-2v-2h3v-1c-1.14-1.14-.4,0-1-2h-2v-2h3v-1c-1.14-1.14-.4,0-1-2h-2v-2h2v-3h-2v-3h2v-1c-1.91-1.25-1.66-1-2-4,1.14-1.14.4,0,1-2h-2c.64-2.74,1.31-2.27,2-5h-3v-1h1v-3h1v-1h-3v-1h1c1.78-1.58,16.62-3,21-3a6.6,6.6,0,0,0,3,3C311.46,391.38,311,391.16,310.41,393.58Z" />
    </g>
    <image id="arm_1_l_img" width="53" height="273" transform="translate(279.43 329.55)" xlink:href="robots/robot_39.png"/>
  </g>
  <g class="hide" data-name="head_3" id="head_3">
    <image id="head_3_img" width="75" height="109" transform="translate(386.44 217.09)" xlink:href="robots/robot_310.png"/>
  </g>
  <g class="hide" data-name="head_2" id="head_2" style="fill: none; isolation: isolate">
    <image id="head_2_img" width="117" height="109" transform="translate(364.91 218.12)" xlink:href="robots/robot_311.png"/>
  </g>
  <g class="hide" data-name="head_1" id="head_1" style="fill: none; isolation: isolate">
    <image id="head_1_img" width="97" height="94" transform="translate(375.2 233.12)" xlink:href="robots/robot_312.png"/>
  </g>
  <g class="hide" data-name="body_3" id="body_3">
    <g class="colorize" id="chest_3" style="fill: none; isolation: isolate">
      <path d="M501.43,342.44l0,4c1,.67,2,1.34,3,2v1c1.46.91,3.18-.42,4,1l-.12,18c-2.19,2.48-1.11,18.92-1.15,24q-.69,31.5-1.39,63c-4,1.48-6.08,2.31-7.05,6.95l-152,0v-2c-2.95-2.56-2.29-4.72-8-5l-.33-106,6-3c.77-1,.88-4.36,2-5Z" />
      <path d="M379.39,347.67l-.05,8h1l1-3h1c.33,1,.66,2,1,3l3-1v1c2.11-.19,1-.1,2-1,2-.56.86.13,2-1h-1v-3h2l0,4a10.66,10.66,0,0,0,4,1l1-3-3,0v-2l4,0a12.08,12.08,0,0,0,1,5l1-1,2,1v1l-22-.14,0,2,89,.56,0-2-44-.28v-1c2-1.29,3.42-4.4,4.05-7l-5,0v1l-2-1v1c-2.05,1.33-1.89,1.63-2,5l3-1v2c1.13.85.15-.13,1,1l-20-.12v-1c1.51-1,2.35-1.11,2-4h-1l1-3-9,.94v-1l-3,0-2,1v-1c-3.19-.89-1.81-.35-5,0l0,5h-1v-1h-1v-1h1l0-4Z" />
      <path d="M447.39,349.1l0,6a12.88,12.88,0,0,0,5,1c1.52-1.2,4.5-.37,7,0-.32-1.33-.65-2.67-1-4h2l0,4h2c.05-5.17.42-4,2.05-7l-5,0v1l-2,1,0-2-4,1-1-2Z" />
      <path d="M406.39,348.84l1.95,7c1.15-1.13.4,0,1-2h1c.34-1.66.68-3.33,1-5Z" />
      <path d="M412.39,348.87l-.05,7,2,0v-1a27,27,0,0,0,4,1l0-2h-1a26.5,26.5,0,0,0,1-4A15.73,15.73,0,0,0,412.39,348.87Z" />
      <path d="M430.39,349a15.54,15.54,0,0,0-1,6c1.13.85.14-.12,1,1l3-1c.43.28.26,1.81,2,1v-1c1.72-1.12,1.36-.62,2-3a7.72,7.72,0,0,1-2-3c-2.45.56-2.22,1-4,2C430.81,349,431.5,350.13,430.39,349Z" />
      <path d="M438.38,350l0,6c1.14-.84.15.13,1-1l3,1v-1h1l0-5h-2l0,3h-1l0-3Z" />
      <path d="M452.37,351.13c-.74,2.76-.29,2.23-3,3l0-4h1C451.51,351.26,450.38,350.51,452.37,351.13Z" />
      <path d="M465.38,350.21v2h2v-2Z" />
      <path d="M423.37,350.94c1.14,1.15.4,0,1,2h-1Z" />
      <path d="M400.36,353.8v-2c1.13.85.14-.13,1,1h1C401.22,353.94,402.36,353.21,400.36,353.8Z" />
      <path d="M464.36,353.2l-1,3,3,0c1.15-1.14,0-.4,2-1v-2Z" />
      <path d="M446.24,372.09l42,.26.06-9-41-.25C446.44,365.32,446.23,368.53,446.24,372.09Z" />
      <path d="M359.29,363.54l0,7,4-1v1l3-1v1a2.57,2.57,0,0,0,3-1c1.73-.28,1.68.94,2,1l6,0,5,0,1-2h1v2c2.66,0,8.23-1.08,9-.95v1l3,0,0-6a12.9,12.9,0,0,0-5-1v1l-2,1v-2l-5,0v1h-1v-1l-7,0,0,4h-1v-1c-2.5-2.06-.39-2.42-5-3l-1,2c-2.56.87-2.46-1.83-3-2a2.53,2.53,0,0,0-3,1Z" />
      <path d="M392.28,365.75h2v1h-1v1C392.14,366.61,392.87,367.75,392.28,365.75Z" />
      <path d="M364.22,374.57h2l0,4,3,1,0-5c3.2.85,2.9,1.2,3,5l15,1.1c.33-1,.67-2,1-3-3.19-.84-2.89-1.19-3-5-8.24,0-17.21-.45-24-1.15l-1,3h-1c-.41,1.09,1.7,1.27,0,4h1v1h3v-1h1Z" />
      <ellipse cx="467.21" cy="377.22" rx="5.66" ry="29.7" transform="translate(87.04 842.04) rotate(-89.64)" fill="none"/>
      <path d="M378.2,377.66l-3,0v-1h1v-1h-1c-1.89-.87,2-1,2-1v1C378.35,376.8,377.62,375.66,378.2,377.66Z" />
      <path d="M381.22,374.68h1l0,3h-1Z" />
      <path d="M365.18,381.58l-6,0v1c3.7,3.5-.46,2.29,1,5h1v1c2-.56.86.13,2-1h1C364.49,385.57,364.83,383.58,365.18,381.58Z" />
      <path d="M373.14,387.63c-.36-3.55-1.22-3.05-2-6l-3,0v1h-1l0,6h1v-1Z" />
      <ellipse cx="467.16" cy="385.72" rx="4.95" ry="29.7" transform="translate(78.49 850.43) rotate(-89.64)" fill="none"/>
      <path d="M446.13,390.09l-.05,8,42,.26.05-8Z" />
      <path d="M359.08,397.54l4,0c.59-1.15,1.76-1.56,2-2l0-3h1l0,4h1c1.14,1.15,0,.4,2,1l0-5,3,0,0,5,10-.94v1l9,.06a15.73,15.73,0,0,0,1-6c-1.13-.85-.15.12-1-1-2.53,1.33-.72,1.57-2,3h-1c-.85-.76.45-4.09-3-3l-1,3h-1c-.79-.62.44-4.13-3-3v1c-1.45,1.24-1.58,2.76-3,4-1.13-1.14,0-.4-2-1v-2h2v-2l-16-.1-1,3h-1Z" />
      <path d="M396.12,390.77q-.51,3-1,6c1.13.85.15-.13,1,1,2.45-.61,2.12-1.21,4-2v-1c.44-.72,1.88,3,2,3h1v-1l9,1.05,1-2a4,4,0,0,1-2-2h1c1.15-1.13,0-.39,2-1l0,5,4,0,0-7-5,1v-1l-4,0a2.75,2.75,0,0,1-3,1s-.35-1-2-1l-3,1v-1Z" />
      <path d="M420.08,397.92l6,0c-.61-3.08-1.58-3.47-2-7l-3,0v1h-1Z" />
      <ellipse cx="467.04" cy="403.22" rx="5.66" ry="29.7" transform="translate(60.88 867.71) rotate(-89.64)" fill="none"/>
      <path d="M359.07,399.54c-.11,2.85-.23,4.29-1,6h1v1c2.33,1,1.2-2,5,0v-1h1l0-3h1c.32,1,.65,2,1,3,1.58.94,3.73-1.3,4-1v2l6-1,1,1c.48-.23.38-1.68,2-2l1,2c4.44,1.78,6.68-.3,10-.94v-1c-2.73-2.83-.28-4.32-6-5l-1,2c-1.63-.19-1.79-1.95-2-2l-6,1v-1c-3.79-.95-11.8-.34-14,.91Z" />
      <path d="M403,406.82v-2a12.45,12.45,0,0,1,2,2l6,0v-1l6,1a15.83,15.83,0,0,0,1-6c-1.13-.85-.15.13-1-1l-3,0,0,4-3,1c.35-1.67.69-3.33,1-5l-4,0-1,2h-1v-2c-5.42.2-3.23.75-6,3v-3l-4,0v1h-1c-.35,1.66-.69,3.33-1,5h1v1c1.58.66,1.94-1,2-1Z" />
      <path d="M424.06,400l-3,0a4,4,0,0,1-2,2l1,1-1,3h1v1l3,0v-1l3,0v-1a6.16,6.16,0,0,1-3-3h1Z" />
      <path d="M373.05,401.63h2v2h-2Z" />
      <ellipse cx="386.54" cy="403.21" rx="2.12" ry="0.71" transform="translate(-19.1 787.2) rotate(-89.64)" fill="none"/>
      <path d="M446,408.09l-.05,8h1v1h-1l0,8,41,.26,1-8c-3.61.1-10.08.71-12-1.07l12,.07.05-8Z" />
      <path d="M359,408.54l0,6a10.54,10.54,0,0,0,4,1c1.15-1.13,0-.39,2-1v-1h-1l0-5h-2v1Z" />
      <path d="M380,412.67l-3,0v-1h1l0-3c-2.93.66-3.28,1.09-4,4l-3,0a9.73,9.73,0,0,0-1-4c-2,.56-.87-.13-2,1h-1l0,5c1.13.85.15-.13,1,1h2v-1l9,1.06Z" />
      <path d="M382,414.68l4,0v-1h1v1h2v-2c-2.7-1.83-1.62-3.43-6-4a4,4,0,0,1-2,2C381.32,412,381.65,413.35,382,414.68Z" />
      <ellipse cx="468.46" cy="416.73" rx="0.71" ry="3.54" transform="translate(48.78 882.55) rotate(-89.64)" fill="none"/>
      <path d="M373,417.63v2h-1c-.83-.88.33-4.13-3-3v1h-1q-.51,3-1,6h1v1h3v-1h1l2,1c1-3.39,1.25-1.86,3-4h1l0-3c-1.13-.85-.14.12-1-1Z" />
      <path d="M391,416.74c.32,2.34.63,4.67,1,7l3-1,0-3h2l0,4a12.9,12.9,0,0,0,5,1v-1l3,1v-1l3,0,0-6a10.6,10.6,0,0,0-4-1l-1,2-3-1v-1c-1.42-.06.4.92-1,1Z" />
      <path d="M359,417.54c-.08,3.58.09,5.71.95,8,2.39-1.35.82-1.8,2-3l3,2v-1h1l0-5Z" />
      <path d="M379,417.67l0,6a10.53,10.53,0,0,0,4,1v-1l6,1,1-3h-3v-1c2.77-.71,2.24-.27,3-3l-5,0v1h-1v-1Z" />
      <path d="M382.94,419.69c.61.69,1.58,1.06,1,3h-1v-1l-1-1h1Z" />
      <path d="M398.93,420.79h2v1C398.92,421.22,400.06,421.92,398.93,420.79Z" />
      <path d="M445.9,426.09l0,8,41,.26,0-8Z" />
      <path d="M358.9,426.54l0,5c1.13.85.15-.13,1,1l4,0v-1h1v1a2,2,0,0,0,2-1c1.41-.15-.22.28,1,1h1v-1l4,1q.51-3,1-6l-4,0v1c-.4,0-2.22-.91-4-1l0,2h-2l0-2Z" />
      <path d="M375.89,426.65l0,6,3,1v-1h1l0-6Z" />
      <path d="M434.76,448c3.71.62,2.29.59,6,0v-2a21.56,21.56,0,0,1,2,2l4,0v-1l2,1c.94-.52.4-1.72,2-2,.94.78.35,1.71,2,2l1-2c1.48-.5,1.18,1.12,1,2h1v-2l4-1c.33,1,.65,2,1,3l9-.94c.33.67.66,1.34,1,2,1.9.64.62-1.17,1-2l2,1v-2l3,1v1l1-1,3,1c.25-4.86,1.09-3.38,2-7h-2v-1l-3,1v1c-1.42,0,.42-.94-1-1-2.39-.11-2.53.44-4,1l0,3h-2c-.77-1.19.61-.9,1-1l-1-3-4,0v2a20.32,20.32,0,0,1-2-2l-6,1v-1l-3,0v-1h-1v1c-.9,1.09-.47-.31-1,1h1c.39,2-.35,1.27-1,2v-1a7.8,7.8,0,0,1-2-3l-4,1v1h-1v-1c-2.34-.7-3.79.53-5,1l0,3-5,1a9.69,9.69,0,0,1,1-4l3,1,0-3c-1.13-.86-.14.12-1-1-2,.56-.87-.13-2,1-2.77.7-2.24.26-3,3h-1C434.12,444.68,434.44,446.35,434.76,448Z" />
      <path d="M346.76,448.46l2,0,0-4h3l0,3h1v1l4,0c2.62-3.14.87-.74,6,0v-1h1l0-4h1v1a7.72,7.72,0,0,1,2,3c1.14-.84.15.13,1-1h1l0-3h1c.31,4,1,4.63,5,5v-1l7,0a29,29,0,0,0-.95-7l-5,0s.06,1.27-2,1v-1l-3,0v1l-5-1c-.72.22-.44,2.21-2,2l-1-2c-3.09-.61-1.9,2.44-5,2v-1l-4,0-1-2-5,0C347,441.7,346.75,444.9,346.76,448.46Z" />
      <path d="M396.76,447.78v-2c1.13.85.15-.13,1,1,1.13,1.15.4,0,1,2,3.82-.57,9.77-1.64,15-.9,1.4.19-.41.83,1,1v-1l3,0v-1l-3-1a11.85,11.85,0,0,0-1-5l-1,1c-1.4.23.37-.64-1-1l-13-.08,0,2h-2l-1-2-5,1v-1l-4,0v-1c-1.36-.38,0,.29-1,1h-1l0,3c1.29,1.05,1,2,2,3s2,.72,3,2l2,0c.92-.39.59-2.85,3-2v1Z" />
      <path d="M418.81,440.92l-.05,7,7,0v-1h1v1l3,0,.05-7-4-1-1,2h-1v-1Z" />
      <path d="M483.77,447.33l7,1v-1l3,0v-1l3,2v-1h1l0-6-3,1a1.58,1.58,0,0,0-2-1s-.19,1.28-2,1a2.14,2.14,0,0,0-2-1c-2.5,0-3.31,2.43-4,2v-2h-1Z" />
      <path d="M449.8,442.11c1.13,1.15.4,0,1,2h-1Z" />
      <path d="M373.79,442.63l2,0,0,4h-1v-1h-1Z" />
      <path d="M411.77,445.87c-3-1-1.09.08-1-3h1Z" />
      <path d="M423.77,446c-3-1-1.09.08-1-3h1Z" />
      <path d="M443.79,443.07l2,0,0,3h-1v-1C443.65,443.93,444.38,445.08,443.79,443.07Z" />
      <path d="M461.79,443.19h2l0,3h-2Z" />
      <path d="M467.79,443.23h2v1C467.78,443.65,468.92,444.35,467.79,443.23Z" />
      <path d="M477.79,443.29c1.13,1.15.4,0,1,2h-1Z" />
      <path d="M487.79,443.35l2,0,0,3-2,0Z" />
      <path d="M358.78,444.54c1.13,1.14.4,0,1,2h-1Z" />
      <path d="M423.74,452c.44,2.39,1.13,3.15,2,5h1l1-2c1.56-.25,1.29,1.8,2,2,2.32.72,2.66-.89,4-1v1h1v-1c1.71-.26,1.68.93,2,1l5,0v-1h1c.34-1.67.69-3.33,1-5h-1v1l-3-1s-.24,1.28-2,1v-1l-4,0s-.09,1.31-2,1v-1l-5,0v1Z" />
      <path d="M404.74,451.83l0,5h1v-1c1.63-.65,1.87,1,2,1l5,0v-1l5,1v-1l2-1,0-3Z" />
    </g>
    <g class="colorize" id="torso_3" style="fill: none; isolation: isolate">
      <path d="M506.54,325.47l0,2,9,.06-.26,41c0,7.17.4,16.46-1.13,22l0,6h1l-.16,25c-1.74,6.08-1.1,16.26-1.15,24q-.59,14-1.18,28l-8-.05v1l-51-.32c-10.39-.07-24.36-1.57-33,.79l-18-.11c-15.57-.1-34.12-1.41-48,.69-1.67.26-1.74-.95-2-1l-20-.13.05-7h-1c.33-.67.67-1.33,1-2h-1l.2-32h-1l.21-33c.16-24.73.24-52.56-.54-73l3-1v1h1l1-2,65,.41,92,.58v-1Z" />
      <path d="M334.64,466.39c20.07,4.4,50.41,2.31,74,2.46l46,.29c7.73.05,17.9.82,24-.84l10,.06c7.46,0,16.05.17,22-.86,2.24-11.95,1.18-28.36,1.26-42q.68-26,1.33-52c0-8.05-.61-18.6,1.16-25l.05-7h-1v-2l-4-3v-1l-38-.24-133-.84c-1.15,1.13,0,.4-2,1a22.17,22.17,0,0,1-4,5l.57,68c-.07,11-1.74,25.8.78,35l-.05,8A92.79,92.79,0,0,0,334.64,466.39Z" />
    </g>
    <image id="body_3_img" width="219" height="194" transform="translate(314.81 281.26) rotate(0.36)" xlink:href="robots/robot_313.png"/>
  </g>
</svg>
