<svg xmlns="http://www.w3.org/2000/svg" xmlns:xlink="http://www.w3.org/1999/xlink" viewBox="0 0 850.39 850.39">
  <g class="hide" data-name="legs_3" id="legs_3">
    <image id="legs_3_img" width="152" height="160" transform="translate(346.75 503.04)" xlink:href="robots/robot_11.png"/>
  </g>
  <g class="hide" data-name="legs_2" id="legs_2" style="fill: none; isolation: isolate">
    <image id="legs_2_img" width="173" height="142" transform="translate(334.7 503.46)" xlink:href="robots/robot_12.png"/>
  </g>
  <g class="hide" data-name="legs_1" id="legs_1" style="fill: none; isolation: isolate">
    <image id="legs_1_img" width="118" height="140" transform="translate(363.29 503.87)" xlink:href="robots/robot_13.png"/>
  </g>
  <g class="hide" data-name="arm_3_right" id="arm_3_right">
    <image id="arm_3_r_img" width="116" height="182" transform="translate(521.2 330.01)" xlink:href="robots/robot_14.png"/>
  </g>
  <g class="hide" data-name="arm_3_left" id="arm_3_left">
    <image id="arm_3_l_img" width="113" height="195" transform="translate(213.2 331.55)" xlink:href="robots/robot_15.png"/>
  </g>
  <g class="hide" data-name="arm_2_right" id="arm_2_right" style="fill: none; isolation: isolate">
    <image id="arm_2_r_img" width="83" height="241" transform="translate(521.9 327.94)" xlink:href="robots/robot_16.png"/>
  </g>
  <g class="hide" data-name="arm_2_left" id="arm_2_left" style="fill: none; isolation: isolate">
    <image id="arm_2_l_img" width="76" height="242" transform="translate(250.56 327.44)" xlink:href="robots/robot_17.png"/>
  </g>
  <g class="hide colorize" data-name="arm_1_right" id="arm_1_right" style="fill: none; isolation: isolate">
    <g id="arm_1_r" style="fill: none; isolation: isolate">
      <path d="M544.9,381.66l20,2v2h2v3h-2v2h2v3c-.29.75-2.71.21-2,3l2,1v2h-2v3h2v2l-2,1c-.73,2.57,1.78,2.16,2,4l-2,1-1,3h3v1c-4.64,1.46-2.5,1.16-2,5,0,0,2,0,1,1h-2v3h2v2h-2v3h2c-1.12,4.09-1.27,1.16-3,3,.34,1,.67,2,1,3h1c-.66,1-1.33,2-2,3l2,1c.67,2.83-1.75,2.29-2,3a2.53,2.53,0,0,0,1,3,2.7,2.7,0,0,1-1,3c.34,1,.67,2,1,3h-1v2h-1c.67,1,1.34,2,2,3l-2,1c-.65,2.86,1.61,2.13,2,3v2h-2v2c.33.77,2.19.39,2,2h-1c-.33,1-.66,2-1,3,.09.57,2.33.52,2,2l-2,1v3h2c-.33.67-.66,1.33-1,2h-1c-.54,1.63,1,1.86,1,2q-.49,3-1,6h2v2h-2v3h2v2h-2c.7,4,.41,3.66,0,8h2c-.82,1.88-1.48,2.62-2,5h2c-.82,1.88-1.48,2.62-2,5h2c-.82,1.88-1.48,2.62-2,5h2v2h-2v3h2v2h-2c.45,2.22,1.87,3.47,2,5h-1a10.1,10.1,0,0,0-1,4h2c-1.12,4.09-2.08,1.7-3,3-1.16,1.65,1.61.8,2,1v1h-1c.34,1,.67,2,1,3l-3,1v1h-2v1h-16a7.44,7.44,0,0,0-2-3c.46-1.36,1.4-1.68,1-4,0,0-1.29-.21-1-2a2.7,2.7,0,0,0,1-3s-1.29-.12-1-2a2.71,2.71,0,0,0,1-3s-1.29-.12-1-2h1c.46-2.31-1-3-1-3,.34-1,.67-2,1-3v-1h-1a2.82,2.82,0,0,1,1-3c.53-2.41-.93-2.58-1-4,.34-.67.67-1.33,1-2h-1c.34-.67.67-1.33,1-2l-2-1c.14-1.69,2-1.83,2-2,.44-1.63-1-1.85-1-2q.51-3,1-6c-2-.57-.86.12-2-1l3-1c1-2.34-1.9-2.68-2-3,.34-1.67.67-3.33,1-5,0-.15-1.38-.37-1-2l2-1c-.66-1.33-1.33-2.67-2-4h2c.07-.72-1.64-3.36-2-5h2c-.82-1.87-1.48-2.62-2-5h2v-3h-2v-3h2v-2h-2v-3h2c-.33-1.33-.66-2.67-1-4h-1v-1h2a9.38,9.38,0,0,0-1-4h-1c.16-1.66,2-1.86,2-2-.33-1.67-.66-3.33-1-5h2c-.33-1.33-.66-2.67-1-4h-1v-1h2c-.33-1.67-.66-3.33-1-5l2-1c-.19-1.73-2-1.88-2-2-.61-2.9,1.6-2.1,2-3v-2h-2v-2h2v-3h-2v-2c2.76-.72,2.24-.28,3-3h-2v-3h2c-2.45-5.87-1.31-1.5,0-7h-2c.34-1.33.67-2.67,1-4h1c-.66-1-1.33-2-2-3,1.72-1.13,1.36-.63,2-3h-2c.47-2.39,1.16-3.14,2-5h-2v-3h2Z" />
    </g>
    <image id="arm_1_r_img" width="59" height="276" transform="translate(516.9 322.66)" xlink:href="robots/robot_18.png"/>
  </g>
  <g class="hide colorize" data-name="arm_1_left" id="arm_1_left" style="fill: none; isolation: isolate">
    <g id="arm_1_l" style="fill: none; mix-blend-mode: multiply;isolation: isolate">
      <path d="M306.41,386.69h2v3h-1c-.8,1.82-1.26.78,0,2s0,.4,2,1v2l-3,1c.84,1.14-.13.15,1,1,1.14,1.14,0,.4,2,1-.65,2.74-1.31,2.28-2,5h3v1c-2,1.13-2.34,1.42-3,4h3c-.73,2.77-.28,2.24-3,3v2l3,1-3,4c2.76.73,2.23.28,3,3h-2v3h2c-.65,2.74-1.31,2.28-2,5h2v3h-2v3h2v2h-2v3h2v2h-2c1.16,4.09.91,1.07,3,3v1h-1c-1.14,1.14,0,.4-2,1,1.16,4.09.91,1.07,3,3v1h-1c-1.14,1.14,0,.4-2,1v3h3v1c-5.26,2.67-1.46,1,0,6h-2c.33,1.34.66,2.67,1,4h1c.23,1.75-2,1.75-2,2-.08.57,1.68,3.45,2,5h-2v3h3v1h-1c-1.14,1.14,0,.4-2,1v4h1v-1c.86-1.89,1,2,1,2h-2v3h2v2h-2c-.34,1-.67,2-1,3h3v1a6.2,6.2,0,0,0-3,3h1c1.14,1.14,0,.4,2,1-2.05,2.52-2.42.42-3,5h3v1h-2v3s1.68.82,2,2h-1c-.67,1-1.34,2-2,3h3v2c-.35.8-2.72.21-2,3l2,1v2h-2v3h3v1h-2v3h2v2h-2c.38,3.54,1.24,3,2,6l-7,1v1l-16,2v-3h2v-2c-2.76-.72-2.24-.28-3-3h3v-2c-2.76-.72-2.24-.28-3-3h2c-.77-3.21-1.51-2.15-2-6h2v-1c-1.91-1.25-1.66-1-2-4h2v-1a6.6,6.6,0,0,1-3-3c2.88-2.11,2-.92,1-4h-1v-1h1c1.14-1.14,0-.39,2-1v-2h-2v-3h2v-2l-3-1v-1h1c1.14-1.14,0-.39,2-1-.73-2.76-.28-2.23-3-3v-2h3c-.73-2.76-.28-2.23-3-3v-2h3v-3h-2c.68-3.8.66-3.19,0-7h2v-3c-2-.57-.87.12-2-1,1.91-1.25,1.66-1,2-4h-2v-2h2v-3h-3v-1c1.36-1.16,1.53-1.82,2-4h-2v-2h2v-3h-2c.64-2.74,1.31-2.27,2-5h-2c.64-2.74,1.31-2.27,2-5l-3-1v-1h1c1.14-1.14,0-.39,2-1-.65-2.74-1.31-2.27-2-5h2v-3h-3v-2h3c-.73-2.76-.28-2.23-3-3v-2h3v-1c-1.14-1.14-.4,0-1-2h-2v-2h3v-1c-1.14-1.14-.4,0-1-2h-2v-2h3v-1c-1.14-1.14-.4,0-1-2h-2v-2h2v-3h-2v-3h2v-1c-1.91-1.25-1.66-1-2-4,1.14-1.14.4,0,1-2h-2c.64-2.74,1.31-2.27,2-5h-3v-1h1v-3h1v-1h-3v-1h1c1.78-1.58,16.62-3,21-3a6.6,6.6,0,0,0,3,3C307.46,384.49,307,384.27,306.41,386.69Z" />
    </g>
    <image id="arm_1_l_img" width="53" height="273" transform="translate(275.43 322.66)" xlink:href="robots/robot_19.png"/>
  </g>
  <g class="hide" data-name="head_3" id="head_3">
    <image id="head_3_img" width="75" height="109" transform="translate(387.44 208.2)" xlink:href="robots/robot_110.png"/>
  </g>
  <g class="hide" data-name="head_2" id="head_2" style="fill: none; isolation: isolate">
    <image id="head_2_img" width="117" height="109" transform="translate(365.91 209.23)" xlink:href="robots/robot_111.png"/>
  </g>
  <g class="hide" data-name="head_1" id="head_1" style="fill: none; isolation: isolate">
    <image id="head_1_img" width="97" height="94" transform="translate(376.2 223.23)" xlink:href="robots/robot_112.png"/>
  </g>
  <g class="hide" data-name="body_1" id="body_1" style="fill: none; isolation: isolate">
    <g class="colorize" id="torso_1" style="fill: none; isolation: isolate"; >
      <path d="M366.65,318.54c11.13,0,21.75.4,30.14-2h10v1c2.69.71,4.6-.77,6-1l33.15,1c9.05-2.53,20.8.19,30.14,0l13.05-1,1,2h2v1h15.07c2.44,4.67,2.09,10.72,2,18.08-1.91,2.22-1,9.14-1,13.06v51.23h-1v3h-1V428h-1v18.08h-1v29.13h-1v3h-1l2,25.11a13.38,13.38,0,0,0-4,3H355.6v-1h-8l-1-2h-2v-4h2q-2.51-61.77-5-123.55c-2-7.26-1-19.17-1-28.13,0-10.36-2.28-19.49,1-28.13l9-2,1,2h6v-1h2l1-2c3.06-1.28,4.52,2.16,6,0Z" />
      <path d="M384.73,342.65v-2h-2v2c-4.32-.09-9.2-.08-12.06,1v2a40.28,40.28,0,0,1,6,4l2,3h3v1h2v1h2l1,2h7v2l-6,2v1h-3v1h-2l-1,2-4,1-1,2h-2l-2,3-7,6v2l-2,1v2l-2,2v2h-1v2h-1v2h-1v4h-1c-1,2.95-2.2,15-1,19.08h1v5h1v3h1c.34,1.34.67,2.68,1,4h1v2l4,3v2l5,4v2q2.52,2,5,4l5,6,3,2v2l2,1v2l2,1v2h1v2h1c3.35,7.57,2.28,18.94,4,28.13l3,1,1,2h2v1H453v-2l3-2q-.49-3-1-6h1V467.21h1v-2h1v-3h1c.33-1.34.67-2.68,1-4l4-3v-2l10.05-9,4-5,2-1v-2l3-2,1-4,2-1v-2l2-2v-2h1v-2l2-1c.34-1.34.67-2.68,1-4h1c1.32-3.64,0-19.63-1-22.1h-1v-2h-1v-3h-1v-2h-1v-2l-2-1c-.33-1.34-.67-2.68-1-4l-3-2v-2l-3-2c-5.67-5.77-11.63-12.19-21.1-14.07.85-1.14-.12-.14,1-1,2.07-2.3,6-1.9,9-3,.66-1.19,1.63-1.42,2-2v-2l2-1v-4l3-2c-.33-1-.67-2-1-3h-7v-2h-2v2h-6v-1h-2v-1h-8v-1h-2v-1l-6-2v-1l-14.07,1v-1l-12.05,1v1c-.89.11-4-3.28-8-2v1l-5,1-1,2-4,1v1h-7v1Z" />
    </g>
    <g class="colorize" id="shoulders_1" style="fill: none; isolation: isolate">
      <path d="M342.54,398.9H330.49l-2-3h-1v-2h-1v-3h-1v-2h-1v-4h-1v-4h-1v-5h-1v-5h-1q-.51-6.52-1-13.06h-1v-3h-1V341.64c0-13.47,2.06-23.59,4-34.15,1.1-.59,1.59-1.76,2-2h2v-1l20.09-1c2.45,4.39,5.36,8.61,6,15.07-4.44-1.78-3.82-.55-7,1-2.23,1.08-1.11-1-3,1-1.68,1.78-3.29,13.58-2,18.08,1.49,5.26,1,14.22,1,21.09V375.8h1v8A91.39,91.39,0,0,0,342.54,398.9Z" />
      <path d="M524.36,401.91H508.29q.49-40.17,1-80.36c-3.11-1.65-1.8-1.91-7-2,.36-4.7,2.14-7.89,3-12.05,3.49-.72,18.55-1.31,21.09,1,2.83,2.32,3.9,7.16,5,11.05v9c3.18,11.55.77,37.48-2,47.22v9h-1v5h-1v5h-1Z" />
    </g>
    <g class="colorize" id="chest_1" style="fill: none; isolation: isolate" >
      <path d="M424.91,394.88h-2c-1.14-9-15-26.12,4-26.12,1.85,3.39,3.74,4.73,4,10.05h-1c-.34,2-.67,4-1,6h-1v3l-2,1C425.58,390.86,425.25,392.87,424.91,394.88Z" />
      <path d="M397.79,370.77h3v1h1v3h-1c-.34,2-.67,4-1,6l-2,1c-.33,1.34-.67,2.68-1,4h-1c-.33,1.34-.67,2.68-1,4h-1l-11,33.15c-2-.58-.87.12-2-1-2.57-2.22-1.78-4.52-3-8h-1V394.88h1c.34-1.34.67-2.68,1-4h1v-3h1v-2l2-1v-2l2-1,5-6h1l1-2h2l1-2h3Z" />
      <path d="M465.1,421c-.7-4-2.76-6.89-4-10.05l-2-9h-1v-2h-1v-3h-1q-1-3-2-6h-1v-2h-1v-2h-1v-3h-1c-.34-1.34-.67-2.68-1-4h-1v-2h-1v-2h-1c-.92-1.4-.67-1.77-1-4a12.69,12.69,0,0,1,5-1v1l5,1,2,3,9,8v2h1c.34,1.34.67,2.68,1,4h1v4h1v2h1v6h1c1.35,4.81-1.22,16.28-3,18.08v1Z" />
      <path d="M406.83,389.86c2.78.72,2.25.28,3,3h1c.34,2,.67,4,1,6h1v3h1v2h1c.45,1.35-.4.15-1,1-2.06,1.89-9.27,1.1-13.06,1-.85-1.14.12-.15-1-1C402,399.83,404.56,395.32,406.83,389.86Z" />
      <path d="M441,389.86c1.17,5.72,4.58,8.07,5,15.07-4.89.89-6.5.18-12.05,0q1-5,2-10.05l2-1v-3h1C440.12,389.72,439,390.46,441,389.86Z" />
      <path d="M406.83,442.09a21,21,0,0,1-10,0l-2-3h-1v-2h-1c-1.43-3.95,3.29-15.67,4-19.09,4.07-1.51,11.44-1.05,17.08-1v-1h1v1c1.14,1.14.4,0,1,2h-1c-.34,1.67-.67,3.35-1,5h-1v3h-1v2h-1v5h-1l-1,5h-1C407.5,440.08,407.17,441.09,406.83,442.09Z" />
      <path d="M433,417H451c.58,2.82,2.28,4.8,3,7v6h1v3h1q-.49,3-1,6c-5.72,3.5-4.35,5.22-12.05,2-.55-1.06-1.85-1.72-2-2v-3l-2-1v-2h-1l-2-9C434.74,421.22,433.5,421.51,433,417Z" />
      <path d="M423.91,433.05c2.83,1.86,6.82,12.15,7,17.08-2.14,1.73-.57,2-4,3v1c-1.69,1-5.89-.77-7-1-1-2.22-1.67-2.83-2-6Z" />
    </g>
    <image id="body_1_img" width="215" height="203" transform="translate(317.2 302.94)" xlink:href="robots/robot_113.png"/>
  </g>
</svg>
