<svg xmlns="http://www.w3.org/2000/svg" xmlns:xlink="http://www.w3.org/1999/xlink" viewBox="0 0 53 273">
  <g id="arm_1_left" style="isolation: isolate">
    <g id="arm_1_l" class="colorize" style="isolation: isolate">
      <path d="M31,64h2v3H32c-.8,1.82-1.26.78,0,2s0,.4,2,1v2l-3,1c.84,1.14-.13.15,1,1,1.14,1.14,0,.4,2,1-.65,2.74-1.31,2.28-2,5h3v1c-2,1.13-2.34,1.42-3,4h3c-.73,2.76-.28,2.24-3,3v2l3,1-3,4c2.76.73,2.23.28,3,3H33v3h2c-.65,2.74-1.31,2.28-2,5h2v3H33v3h2v2H33v3h2v2H33c1.15,4.08.91,1.07,3,3v1H35c-1.14,1.14,0,.4-2,1,1.15,4.08.91,1.07,3,3v1H35c-1.14,1.14,0,.4-2,1v3h3v1c-5.27,2.66-1.46,1,0,6H34c.33,1.34.66,2.67,1,4h1c.22,1.75-2,1.74-2,2-.08.57,1.68,3.45,2,5H34v3h3v1H36c-1.14,1.14,0,.4-2,1v4h1v-1c.86-1.89,1,2,1,2H34v3h2v2H34c-.34,1-.67,2-1,3h3v1a6.12,6.12,0,0,0-3,3h1c1.14,1.14,0,.4,2,1-2,2.52-2.42.41-3,5h3v1H34v3s1.67.82,2,2H35l-2,3h3v2c-.35.8-2.72.21-2,3l2,1v2H34v3h3v1H35v3h2v2H35c.38,3.54,1.24,3,2,6l-7,1v1l-16,2v-3h2v-2c-2.77-.72-2.24-.28-3-3h3v-2c-2.77-.72-2.24-.28-3-3h2c-.77-3.21-1.51-2.15-2-6h2v-1c-1.91-1.25-1.66-1-2-4h2v-1a6.6,6.6,0,0,1-3-3c2.87-2.11,2-.92,1-4H12v-1h1c1.14-1.14,0-.4,2-1v-2H13v-3h2v-2l-3-1v-1h1c1.14-1.14,0-.4,2-1-.73-2.76-.28-2.23-3-3v-2h3c-.73-2.76-.28-2.23-3-3v-2h3v-3H13c.67-3.8.66-3.19,0-7h2v-3c-2-.57-.87.12-2-1,1.91-1.25,1.66-1,2-4H13v-2h2v-3H12v-1c1.36-1.16,1.52-1.82,2-4H12v-2h2v-3H12c.64-2.74,1.3-2.27,2-5H12c.64-2.74,1.3-2.27,2-5l-3-1v-1h1c1.14-1.14,0-.4,2-1-.65-2.74-1.31-2.27-2-5h2v-3H11v-2h3c-.73-2.76-.28-2.23-3-3V99h3V98c-1.14-1.14-.4,0-1-2H11V94h3V93c-1.14-1.14-.4,0-1-2H11V89h3V88c-1.14-1.14-.4,0-1-2H11V84h2V81H11V78h2V77c-1.91-1.25-1.66-1-2-4,1.13-1.14.39,0,1-2H10c.64-2.74,1.31-2.27,2-5H9V65h1V62h1V61H8V60H9c1.78-1.58,16.62-3,21-3a6.6,6.6,0,0,0,3,3C32,61.83,31.59,61.61,31,64Z" />
    </g>
    <image id="arm_1_l_img" class="link_img" width="53" height="273" xlink:href="arm_1_left.png"/>
  </g>
</svg>
