<svg xmlns="http://www.w3.org/2000/svg" xmlns:xlink="http://www.w3.org/1999/xlink" viewBox="0 0 59 276">
  <g id="arm_1_right" style="isolation: isolate">
    <g id="arm_1_r" class="colorize" style="isolation: isolate">
      <path d="M28,59l20,2v2h2v3H48v2h2v3c-.3.75-2.72.21-2,3l2,1v2H48v3h2v2l-2,1c-.74,2.57,1.78,2.16,2,4l-2,1-1,3h3v1c-4.64,1.46-2.5,1.16-2,5,0,0,2,0,1,1H47v3h2v2H47v3h2c-1.12,4.09-1.27,1.16-3,3,.33,1,.67,2,1,3h1l-2,3,2,1c.66,2.83-1.75,2.29-2,3a2.53,2.53,0,0,0,1,3,2.7,2.7,0,0,1-1,3c.33,1,.67,2,1,3H46v2H45l2,3-2,1c-.65,2.86,1.61,2.13,2,3v2H45v2c.32.77,2.19.39,2,2H46l-1,3c.09.56,2.32.52,2,2l-2,1v3h2l-1,2H45c-.55,1.63,1,1.86,1,2-.33,2-.67,4-1,6h2v2H45v3h2v2H45c.7,4,.4,3.66,0,8h2c-.82,1.88-1.48,2.62-2,5h2c-.82,1.88-1.48,2.62-2,5h2c-.82,1.88-1.48,2.62-2,5h2v2H45v3h2v2H45c.44,2.22,1.86,3.47,2,5H46a10.1,10.1,0,0,0-1,4h2c-1.13,4.09-2.08,1.7-3,3-1.16,1.65,1.61.8,2,1v1H45l1,3-3,1v1H41v1H25a7.54,7.54,0,0,0-2-3c.46-1.36,1.4-1.68,1-4,0,0-1.29-.21-1-2a2.7,2.7,0,0,0,1-3s-1.3-.12-1-2a2.71,2.71,0,0,0,1-3s-1.3-.12-1-2h1c.46-2.31-1-3-1-3l1-3v-1H23a2.82,2.82,0,0,1,1-3c.52-2.41-.94-2.58-1-4l1-2H23l1-2-2-1c.14-1.69,1.95-1.83,2-2,.44-1.63-1-1.85-1-2,.33-2,.67-4,1-6-2-.57-.87.12-2-1l3-1c1-2.34-1.9-2.68-2-3,.33-1.67.67-3.33,1-5,0-.15-1.39-.37-1-2l2-1-2-4h2c.07-.72-1.65-3.36-2-5h2c-.82-1.88-1.48-2.62-2-5h2v-3H23v-3h2v-2H23v-3h2c-.33-1.33-.67-2.67-1-4H23v-1h2a9.68,9.68,0,0,0-1-4H23c.16-1.66,2-1.86,2-2-.33-1.67-.67-3.33-1-5h2c-.33-1.33-.67-2.67-1-4H24v-1h2c-.33-1.67-.67-3.33-1-5l2-1c-.19-1.73-2-1.88-2-2-.61-2.9,1.59-2.1,2-3V99H25V97h2V94H25V92c2.76-.72,2.24-.28,3-3H26V86h2c-2.46-5.87-1.31-1.5,0-7H26c.33-1.33.67-2.67,1-4h1l-2-3c1.72-1.13,1.36-.63,2-3H26c.46-2.39,1.16-3.14,2-5H26V61h2Z" fill="none" fill-rule="evenodd"/>
    </g>
    <image id="arm_1_r_img" class="link_img" width="59" height="276" xlink:href="arm_1_right.png"/>
  </g>
</svg>
