<svg xmlns="http://www.w3.org/2000/svg" xmlns:xlink="http://www.w3.org/1999/xlink" viewBox="0 0 219 194">
  <g id="body_3" style="isolation: isolate">
    <g id="torso_3" class="colorize" style="isolation: isolate">
      <path d="M192,43v2h9V86c0,7.16.5,16.45-1,22v6h1v25c-1.71,6.09-1,16.27-1,24q-.5,14-1,28h-8v1H140c-10.39,0-24.37-1.42-33,1H89c-15.57,0-34.13-1.19-48,1-1.67.26-1.75-.94-2-1H19v-7H18l1-2H18V152H17V119c0-24.73-.1-52.57-1-73l3-1v1h1c.33-.67.67-1.33,1-2H178V43Z" />
      <path d="M21,185c20.09,4.28,50.42,2,74,2h46c7.73,0,17.91.7,24-1h10c7.45,0,16,.07,22-1,2.17-12,1-28.37,1-42q.5-26,1-52c0-8-.73-18.6,1-25V59h-1V57l-4-3V53H24c-1.14,1.14,0,.4-2,1a21.94,21.94,0,0,1-4,5q.49,34,1,68c0,11-1.58,25.81,1,35v8A92.81,92.81,0,0,0,21,185Z" />
    </g>
    <g id="chest_3" class="colorize" style="isolation: isolate">
      <path d="M187,60v4l3,2v1c1.47.9,3.19-.44,4,1V86c-2.18,2.49-1,18.93-1,24q-.5,31.5-1,63c-4,1.51-6.06,2.35-7,7L33,181v-2c-3-2.54-2.33-4.71-8-5q-.49-53-1-106l6-3c.76-1,.85-4.36,2-5Z" />
      <path d="M65,66v8h1c.33-1,.67-2,1-3h1c.33,1,.67,2,1,3l3-1v1c2.1-.2,1-.11,2-1,2-.57.87.12,2-1H75V69h2v4a10.59,10.59,0,0,0,4,1c.33-1,.67-2,1-3H79V69h4a11.94,11.94,0,0,0,1,5l1-1,2,1v1H65v2h89V75H110V74c2-1.3,3.39-4.43,4-7h-5v1l-2-1v1c-2,1.34-1.88,1.64-2,5l3-1v2c1.13.84.15-.13,1,1H89V74c1.5-1,2.34-1.12,2-4H90c.33-1,.67-2,1-3l-9,1V67H79l-2,1V67c-3.19-.87-1.81-.34-5,0v5H71V71H70V70h1V66Z" />
      <path d="M133,67v6a12.6,12.6,0,0,0,5,1c1.52-1.21,4.49-.4,7,0l-1-4h2v4h2c0-5.17.39-4,2-7h-5v1l-2,1V67l-4,1-1-2Z" />
      <path d="M92,67c.67,2.33,1.33,4.67,2,7,1.14-1.14.4,0,1-2h1c.33-1.67.67-3.33,1-5Z" />
      <path d="M98,67v7h2V73a27.74,27.74,0,0,0,4,1V72h-1a27.74,27.74,0,0,0,1-4A15.72,15.72,0,0,0,98,67Z" />
      <path d="M116,67a15.72,15.72,0,0,0-1,6c1.13.84.15-.13,1,1l3-1c.43.28.28,1.81,2,1V73c1.72-1.13,1.36-.63,2-3a7.72,7.72,0,0,1-2-3c-2.44.57-2.21,1-4,2C116.43,67,117.12,68.13,116,67Z" />
      <path d="M124,68v6c1.13-.84.15.13,1-1l3,1V73h1V68h-2v3h-1V68Z" />
      <path d="M138,69c-.72,2.76-.28,2.24-3,3V68h1C137.14,69.14,136,68.4,138,69Z" />
      <path d="M151,68v2h2V68Z" />
      <path d="M109,69c1.14,1.14.4,0,1,2h-1Z" />
      <path d="M86,72V70c1.13.84.15-.13,1,1h1C86.86,72.14,88,71.4,86,72Z" />
      <path d="M150,71l-1,3h3c1.14-1.14,0-.4,2-1V71Z" />
      <path d="M132,90h42V81H133C132.16,83.23,132,86.44,132,90Z" />
      <path d="M45,82v7l4-1v1l3-1v1a2.57,2.57,0,0,0,3-1c1.72-.29,1.68.92,2,1H68c.33-.67.67-1.33,1-2h1v2c2.66,0,8.23-1.12,9-1v1h3V83a12.6,12.6,0,0,0-5-1v1l-2,1V82H70v1H69V82H62v4H61V85c-2.52-2-.41-2.41-5-3-.33.67-.67,1.33-1,2-2.56.89-2.47-1.81-3-2a2.53,2.53,0,0,0-3,1Z" />
      <path d="M78,84h2v1H79v1C77.86,84.86,78.6,86,78,84Z" />
      <path d="M50,93h2v4l3,1V93c3.2.83,2.9,1.18,3,5l15,1c.33-1,.67-2,1-3-3.2-.83-2.9-1.18-3-5-8.23.06-17.21-.34-24-1-.33,1-.67,2-1,3H45c-.41,1.1,1.71,1.26,0,4h1v1h3V97h1Z" />
      <ellipse cx="153" cy="95" rx="29.7" ry="5.66" />
      <path d="M64,96H61V95h1V94H61c-1.89-.86,2-1,2-1v1C64.14,95.14,63.4,94,64,96Z" />
      <path d="M67,93h1v3H67Z" />
      <path d="M51,100H45v1c3.72,3.48-.45,2.29,1,5h1v1c2-.57.87.12,2-1h1C50.33,104,50.67,102,51,100Z" />
      <path d="M59,106c-.38-3.54-1.24-3-2-6H54v1H53v6h1v-1Z" />
      <ellipse cx="153" cy="103.5" rx="29.7" ry="4.95" />
      <path d="M132,108v8h42v-8Z" />
      <path d="M45,116h4c.58-1.16,1.75-1.58,2-2v-3h1v4h1c1.14,1.14,0,.4,2,1v-5h3v5l10-1v1h9a15.72,15.72,0,0,0,1-6c-1.13-.84-.15.13-1-1-2.52,1.34-.72,1.57-2,3H74c-.86-.75.42-4.1-3-3-.33,1-.67,2-1,3H69c-.8-.62.42-4.13-3-3v1c-1.44,1.24-1.56,2.77-3,4-1.14-1.14,0-.4-2-1v-2h2v-2H47c-.33,1-.67,2-1,3H45Z" />
      <path d="M82,109c-.33,2-.67,4-1,6,1.13.84.15-.13,1,1,2.45-.63,2.11-1.23,4-2v-1c.44-.72,1.9,3,2,3h1v-1l9,1c.33-.67.67-1.33,1-2a4,4,0,0,1-2-2h1c1.14-1.14,0-.4,2-1v5h4v-7l-5,1v-1H95a2.76,2.76,0,0,1-3,1s-.35-1-2-1l-3,1v-1Z" />
      <path d="M106,116h6c-.63-3.08-1.6-3.46-2-7h-3v1h-1Z" />
      <ellipse cx="153" cy="121" rx="29.7" ry="5.66" />
      <path d="M45,118c-.09,2.85-.2,4.29-1,6h1v1c2.33,1,1.18-2,5,0v-1h1v-3h1c.33,1,.67,2,1,3,1.59.93,3.72-1.32,4-1v2l6-1,1,1c.48-.23.37-1.68,2-2,.33.67.67,1.33,1,2,4.45,1.75,6.68-.34,10-1v-1c-2.75-2.81-.31-4.32-6-5-.33.67-.67,1.33-1,2-1.63-.18-1.8-1.93-2-2l-6,1v-1c-3.79-.92-11.8-.26-14,1Z" />
      <path d="M89,125v-2a12.65,12.65,0,0,1,2,2h6v-1l6,1a15.72,15.72,0,0,0,1-6c-1.13-.84-.15.13-1-1h-3v4l-3,1c.33-1.67.67-3.33,1-5H94c-.33.67-.67,1.33-1,2H92v-2c-5.43.23-3.23.77-6,3v-3H82v1H81c-.33,1.67-.67,3.33-1,5h1v1c1.58.65,1.93-1,2-1Z" />
      <path d="M110,118h-3a4,4,0,0,1-2,2l1,1c-.33,1-.67,2-1,3h1v1h3v-1h3v-1a6.12,6.12,0,0,1-3-3h1Z" />
      <path d="M59,120h2v2H59Z" />
      <ellipse cx="72.5" cy="121.5" rx="0.71" ry="2.12" />
      <path d="M132,126v8h1v1h-1v8h41c.33-2.67.67-5.33,1-8-3.6.12-10.07.77-12-1h12v-8Z" />
      <path d="M45,127v6a10.59,10.59,0,0,0,4,1c1.14-1.14,0-.4,2-1v-1H50v-5H48v1Z" />
      <path d="M66,131H63v-1h1v-3c-2.93.68-3.27,1.11-4,4H57a9.68,9.68,0,0,0-1-4c-2,.57-.87-.12-2,1H53v5c1.13.84.15-.13,1,1h2v-1l9,1Z" />
      <path d="M68,133h4v-1h1v1h2v-2c-2.72-1.81-1.64-3.41-6-4a4,4,0,0,1-2,2C67.33,130.33,67.67,131.67,68,133Z" />
      <ellipse cx="154.5" cy="134.5" rx="3.54" ry="0.71" />
      <path d="M59,136v2H58c-.84-.88.31-4.13-3-3v1H54c-.33,2-.67,4-1,6h1v1h3v-1h1l2,1c1-3.4,1.24-1.88,3-4h1v-3c-1.13-.84-.15.13-1-1Z" />
      <path d="M77,135c.33,2.33.67,4.67,1,7l3-1v-3h2v4a12.6,12.6,0,0,0,5,1v-1l3,1v-1h3v-6a10.59,10.59,0,0,0-4-1l-1,2-3-1v-1c-1.41-.05.41.92-1,1Z" />
      <path d="M45,136c-.06,3.58.13,5.71,1,8,2.38-1.37.81-1.81,2-3l3,2v-1h1v-5Z" />
      <path d="M65,136v6a10.59,10.59,0,0,0,4,1v-1l6,1,1-3H73v-1c2.76-.72,2.24-.28,3-3H71v1H70v-1Z" />
      <path d="M69,138c.61.68,1.58,1.05,1,3H69v-1l-1-1h1Z" />
      <path d="M85,139h2v1C85,139.43,86.13,140.12,85,139Z" />
      <path d="M132,144v8h41v-8Z" />
      <path d="M45,145v5c1.13.84.15-.13,1,1h4v-1h1v1a2,2,0,0,0,2-1c1.41-.16-.22.28,1,1h1v-1l4,1c.33-2,.67-4,1-6H56v1c-.4,0-2.23-.9-4-1v2H50v-2Z" />
      <path d="M62,145v6l3,1v-1h1v-6Z" />
      <path d="M121,166c3.72.59,2.29.58,6,0v-2a23.29,23.29,0,0,1,2,2h4v-1l2,1c.94-.53.39-1.72,2-2,.94.77.36,1.7,2,2l1-2c1.47-.51,1.18,1.12,1,2h1v-2l4-1,1,3,9-1,1,2c1.9.63.61-1.17,1-2l2,1v-2l3,1v1l1-1,3,1c.22-4.86,1.07-3.38,2-7h-2v-1l-3,1v1c-1.41.05.41-.94-1-1-2.4-.1-2.53.45-4,1v3h-2c-.77-1.18.61-.9,1-1l-1-3h-4v2a19.58,19.58,0,0,1-2-2l-6,1v-1h-3v-1h-1v1c-.9,1.09-.48-.31-1,1h1c.4,2-.34,1.27-1,2v-1a7.72,7.72,0,0,1-2-3l-4,1v1h-1v-1c-2.34-.69-3.78.55-5,1v3l-5,1a9.68,9.68,0,0,1,1-4l3,1v-3c-1.13-.84-.15.13-1-1-2,.57-.87-.12-2,1-2.76.72-2.24.28-3,3h-1C120.33,162.67,120.67,164.33,121,166Z" />
      <path d="M33,167h2v-4h3v3h1v1h4c2.6-3.15.87-.74,6,0v-1h1v-4h1v1a7.72,7.72,0,0,1,2,3c1.13-.84.15.13,1-1h1v-3h1c.34,4,1,4.63,5,5v-1h7a29.73,29.73,0,0,0-1-7H62s.07,1.27-2,1v-1H57v1l-5-1c-.72.22-.42,2.21-2,2l-1-2c-3.09-.6-1.89,2.45-5,2v-1H40l-1-2H34C33.16,160.23,33,163.44,33,167Z" />
      <path d="M83,166v-2c1.13.84.15-.13,1,1,1.14,1.14.4,0,1,2,3.82-.6,9.77-1.7,15-1,1.4.19-.4.83,1,1v-1h3v-1l-3-1a11.94,11.94,0,0,0-1-5l-1,1c-1.39.23.37-.65-1-1H85v2H83l-1-2-5,1v-1H73v-1c-1.36-.37,0,.29-1,1H71v3c1.3,1,1,2,2,3s2,.71,3,2h2c.92-.4.58-2.85,3-2v1Z" />
      <path d="M105,159v7h7v-1h1v1h3v-7l-4-1-1,2h-1v-1Z" />
      <path d="M170,165l7,1v-1h3v-1l3,2v-1h1v-6l-3,1a1.58,1.58,0,0,0-2-1s-.19,1.28-2,1a2.14,2.14,0,0,0-2-1c-2.5.06-3.3,2.46-4,2v-2h-1Z" />
      <path d="M136,160c1.14,1.14.4,0,1,2h-1Z" />
      <path d="M60,161h2v4H61v-1H60Z" />
      <path d="M98,164c-3-1-1.09.09-1-3h1Z" />
      <path d="M110,164c-3-1-1.09.09-1-3h1Z" />
      <path d="M130,161h2v3h-1v-1C129.86,161.86,130.6,163,130,161Z" />
      <path d="M148,161h2v3h-2Z" />
      <path d="M154,161h2v1C154,161.43,155.13,162.12,154,161Z" />
      <path d="M164,161c1.14,1.14.4,0,1,2h-1Z" />
      <path d="M174,161h2v3h-2Z" />
      <path d="M45,163c1.14,1.14.4,0,1,2H45Z" />
      <path d="M110,170c.46,2.39,1.16,3.14,2,5h1l1-2c1.56-.26,1.3,1.79,2,2,2.32.71,2.65-.91,4-1v1h1v-1c1.71-.27,1.69.92,2,1h5v-1h1c.33-1.67.67-3.33,1-5h-1v1l-3-1s-.23,1.29-2,1v-1h-4s-.08,1.31-2,1v-1h-5v1Z" />
      <path d="M91,170v5h1v-1c1.62-.67,1.87,1,2,1h5v-1l5,1v-1l2-1v-3Z" />
    </g>
    
    <image id="body_3_img" class="link_img" width="219" height="194" xlink:href="body_3.png"/>
  </g>
</svg>
