<svg xmlns="http://www.w3.org/2000/svg" xmlns:xlink="http://www.w3.org/1999/xlink" viewBox="0 0 215 203">
  <g id="body_1" style="isolation: isolate">
    <g id="torso_1" class="colorize" style="isolation: isolate">
      <path d="M49.46,15.6c11.13,0,21.74.4,30.13-2h10v1c2.69.71,4.6-.77,6-1l33.15,1c9.05-2.52,20.8.19,30.14,0l13.06-1,1,2h2v1h15.07c2.45,4.67,2.09,10.72,2,18.08-1.91,2.22-1,9.14-1,13.06V99h-1v3h-1v23.1h-1v18.08h-1V172.3h-1v3h-1q1,12.56,2,25.11a13.34,13.34,0,0,0-4,3H38.41v-1h-8l-1-2h-2v-4h2q-2.52-61.77-5-123.55c-2-7.26-1-19.17-1-28.13,0-10.36-2.28-19.49,1-28.13l9-2,1,2h6v-1h2l1-2c3.06-1.28,4.52,2.16,6,0Z" />
      <path d="M67.54,39.71v-2h-2v2c-4.31-.09-9.19-.08-12.06,1v2a39.78,39.78,0,0,1,6,4l2,3h3v1h2v1h2l1,2h7v2l-6,2v1h-3v1h-2l-1,2-4,1-1,2h-2l-2,3-7,6v2l-2,1v2l-2,2v2h-1v2h-1v2h-1v4h-1c-1,3-2.21,15-1,19.08h1v5h1v3h1c.34,1.34.67,2.68,1,4h1v2l4,3v2l5,4v2l5,4,5,6,3,2v2l2,1v2l2,1v2h1v2h1c3.35,7.57,2.28,18.94,4,28.13l3,1,1,2h2v1h53.23v-2l3-2c-.34-2-.67-4-1-6h1V164.27h1v-2h1v-3h1c.34-1.34.67-2.68,1-4l4-3v-2l10.05-9,4-5,2-1v-2l3-2,1-4,2-1v-2l2-2v-2h1v-2l2-1c.33-1.34.67-2.67,1-4h1c1.31-3.64-.05-19.63-1-22.1h-1v-2h-1v-3h-1v-2h-1v-2l-2-1c-.33-1.34-.67-2.68-1-4l-3-2v-2l-3-2c-5.67-5.77-11.63-12.19-21.09-14.07.85-1.14-.13-.14,1-1,2.07-2.3,6-1.9,9-3,.66-1.2,1.63-1.43,2-2v-2l2-1v-4l3-2c-.33-1-.67-2-1-3h-7v-2h-2v2h-6v-1h-2v-1h-8v-1h-2v-1l-6-2v-1l-14.06,1v-1l-12.06,1v1c-.89.12-4-3.27-8-2v1l-5,1-1,2-4,1v1h-7v1Z" />
    </g>
    <g id="shoulders_1" class="colorize" style="isolation: isolate">
      <path d="M25.35,96H13.29l-2-3h-1v-2h-1v-3h-1v-2h-1v-4h-1v-4h-1v-5h-1v-5h-1q-.51-6.53-1-13.06h-1v-3h-1V38.7c0-13.47,2.06-23.59,4-34.15,1.1-.59,1.6-1.76,2-2h2v-1l20.09-1c2.46,4.39,5.36,8.61,6,15.07-4.43-1.78-3.81-.55-7,1-2.24,1.08-1.12-1-3,1-1.68,1.78-3.28,13.58-2,18.08,1.5,5.26,1,14.22,1,21.09V72.86h1v8A90.23,90.23,0,0,0,25.35,96Z" />
      <path d="M207.17,99H191.09q.51-40.17,1-80.36c-3.11-1.65-1.81-1.91-7-2,.35-4.7,2.13-7.89,3-12,3.5-.72,18.56-1.31,21.09,1,2.83,2.32,3.91,7.16,5,11.05v9c3.18,11.55.76,37.48-2,47.22v9h-1v5h-1v5h-1C208.5,94.28,207.83,96.63,207.17,99Z" />
    </g>
    <g id="chest_1" class="colorize" style="isolation: isolate">
      <path d="M107.72,91.94h-2c-1.14-9-15-26.12,4-26.12,1.84,3.39,3.74,4.73,4,10.05h-1c-.33,2-.67,4-1,6h-1v3l-2,1C108.39,87.92,108.05,89.93,107.72,91.94Z" />
      <path d="M80.6,67.83h3v1h1v3h-1q-.51,3-1,6l-2,1c-.34,1.34-.67,2.68-1,4h-1c-.34,1.34-.67,2.68-1,4h-1q-5.52,16.58-11,33.15c-2-.58-.87.12-2-1-2.57-2.22-1.78-4.52-3-8h-1V91.94h1c.33-1.34.67-2.68,1-4h1v-3h1v-2l2-1v-2l2-1,5-6h1l1-2h2l1-2h3Z" />
      <path d="M147.9,118.06c-.69-4-2.75-6.89-4-10l-2-9h-1V97h-1V94h-1l-2-6h-1v-2h-1v-2h-1v-3h-1c-.33-1.34-.67-2.68-1-4h-1v-2h-1v-2h-1c-.92-1.4-.67-1.77-1-4a12.69,12.69,0,0,1,5-1v1l5,1,2,3q4.53,4,9,8v2h1c.33,1.34.67,2.68,1,4h1v4h1v2h1v6h1c1.35,4.81-1.22,16.28-3,18.08v1Z" />
      <path d="M89.64,86.92c2.77.73,2.24.28,3,3h1c.34,2,.67,4,1,6h1v3h1v2h1c.45,1.35-.39.15-1,1-2.06,1.89-9.27,1.1-13.06,1-.85-1.14.13-.15-1-1C84.79,96.89,87.36,92.38,89.64,86.92Z" />
      <path d="M123.79,86.92c1.17,5.72,4.58,8.07,5,15.07-4.88.89-6.5.18-12,0l2-10,2-1v-3h1C122.93,86.78,121.78,87.52,123.79,86.92Z" />
      <path d="M89.64,139.15a21.09,21.09,0,0,1-10,0l-2-3h-1v-2h-1c-1.43-3.95,3.29-15.67,4-19.08,4.07-1.52,11.44-1.06,17.08-1v-1h1v1c1.15,1.15.4,0,1,2h-1c-.33,1.67-.67,3.35-1,5h-1v3h-1v2h-1v5h-1l-1,5h-1Z" />
      <path d="M115.75,114h18.09c.58,2.82,2.27,4.8,3,7v6h1v3h1c-.34,2-.67,4-1,6-5.72,3.5-4.34,5.22-12,2-.54-1.06-1.85-1.72-2-2v-3l-2-1v-2h-1l-2-9C117.54,118.28,116.3,118.57,115.75,114Z" />
      <path d="M106.71,130.11c2.84,1.86,6.82,12.15,7,17.08-2.15,1.73-.57,2-4,3v1c-1.69,1-5.89-.77-7-1-1-2.22-1.67-2.83-2-6Z" />
    </g>
    <image id="body_1_img" class="link_img" width="215" height="203" xlink:href="body_1.png"/>
  </g>
</svg>
