<svg xmlns="http://www.w3.org/2000/svg" xmlns:xlink="http://www.w3.org/1999/xlink" viewBox="0 0 200 223">
  <g id="body_2" style="isolation: isolate">
    <g id="torso_2" class="colorize" style="isolation: isolate">
      <path d="M88,22h2c-.84,1.13.13.15-1,1v1H86V23C88,22.43,86.87,23.12,88,22Z" fill="none" fill-rule="evenodd"/>
      <path d="M62,74H50a74.92,74.92,0,0,0-1-14l-3-1V58l-5,1c-1,5.38-1,13.15-1,20H38c-.55,3.08-1.25,3.91,0,7h1c.33,3.33.67,6.67,1,10H37c.11,4.54.27,4.39,2,7h1c.33,3.33.67,6.67,1,10H38c-.33,2-.67,4-1,6l3,1c.33,1.67.67,3.33,1,5H40v4l-2,1v3H37l1,3h2v11H39v2H38c.67,2.67,1.33,5.33,2,8l3,1c-.22,6.29-.75,12.57,3,15v1c1.88,1.21,4.27.25,6,0q.49-8,1-16h9v43h1v8c-19.87.05-41.72-.09-60-1-1-11.08-1-25.36-1-38V153c-2.93-10.44-1-32.21-1-45Q.51,66.51,0,25H12V24l4,1h1V24c5.67-1.45,13.74.63,18,1,17,1.48,35.45-.87,51-1v1H85c-1,1.29-3.07,1.82-4,3-.33,1-.67,2-1,3H73v1H66s-.13.68-2,1c-2.37,4.07-3.07,3.76-3,11,1.51,1.68,1,5.82,1,9Z" fill="none" fill-rule="evenodd"/>
      <path d="M198,27c1.65,9.06,1.26,19.19-1,27V89h-1v47h-1v31h-1v30h-1v13c-4.09,1.5-11.36,1-17,1H143v-1h-7q-.5-65-1-130V47c0-5.1.51-10.44-2-13-2.92-3.14-7.5-1.59-13-2h-3c-.33-1-.67-2-1-3-.93-1.17-3-1.72-4-3l33-1c6.65,1.87,17.68,1,26,1Z" fill="none" fill-rule="evenodd"/>
      <path d="M147,51c-.73,2.67-1.61,3.13-3,5h-1c-.33,1.67-.67,3.33-1,5h-1q.5,6.5,1,13h1l1,3,5,4,1,2,6,1v1h8V84h3V83h2V82h2V81a8.49,8.49,0,0,1,4-2c.75-3.56,3-6,4-9V60c-3.68-3.35-3-8.42-9-10C164.2,43.09,152.81,49.43,147,51Z" fill="none" fill-rule="evenodd"/>
      <path d="M143,200l24,1q.5-21,1-42c0-7.53-1.14-18.18,1-24h-2c-2.27-2.05-18.22-1.09-23-1-1.95,5.33-1,15-1,22Z" fill="none" fill-rule="evenodd"/>
    </g>
    <g id="chest_2" class="colorize" style="isolation: isolate">
      <path d="M117,32h14a21.94,21.94,0,0,0,4,5V207h-1v10H119v5H78v-4c-3.57-1.33-9.91-1.05-15-1q-.49-70-1-140c0-10.16.43-22.45-1-31-1-6.32.84-10.71,4-13V32h8V31h7c.93-2,2.31-4.79,4-6h2V24c1.23-1,1.93-.73,3-2,6-.18,14.61-1,19,1v1h2l2,3C114.73,29,116,28.14,117,32Z" fill="none" fill-rule="evenodd"/>
    </g>
    <image id="body_2_img" class="link_img" width="200" height="223" xlink:href="body_2.png"/>
  </g>
</svg>
